<svg xmlns="http://www.w3.org/2000/svg" viewBox="0 0 1500 1800">
  <defs>
    <style>
      .title { font: bold 26px 'Segoe UI', Arial, sans-serif; fill: #1e293b; }
      .subtitle { font: 14px 'Segoe UI', Arial, sans-serif; fill: #64748b; }
      .module-title { font: bold 14px 'Segoe UI', Arial, sans-serif; fill: white; }
      .class-name { font: bold 13px 'Consolas', monospace; fill: #1e293b; }
      .method-name { font: 11px 'Consolas', monospace; fill: #6366f1; }
      .param-text { font: 10px 'Consolas', monospace; fill: #64748b; }
      .return-text { font: 10px 'Consolas', monospace; fill: #059669; }
      .label { font: 11px 'Segoe UI', Arial, sans-serif; fill: #475569; }
      .label-bold { font: bold 11px 'Segoe UI', Arial, sans-serif; fill: #1e293b; }
      .file-path { font: 10px 'Consolas', monospace; fill: #94a3b8; }
    </style>

    <linearGradient id="browserModGrad" x1="0%" y1="0%" x2="100%" y2="0%">
      <stop offset="0%" style="stop-color:#10b981"/>
      <stop offset="100%" style="stop-color:#059669"/>
    </linearGradient>

    <linearGradient id="domModGrad" x1="0%" y1="0%" x2="100%" y2="0%">
      <stop offset="0%" style="stop-color:#f59e0b"/>
      <stop offset="100%" style="stop-color:#d97706"/>
    </linearGradient>

    <linearGradient id="agentModGrad" x1="0%" y1="0%" x2="100%" y2="0%">
      <stop offset="0%" style="stop-color:#8b5cf6"/>
      <stop offset="100%" style="stop-color:#7c3aed"/>
    </linearGradient>

    <linearGradient id="toolsModGrad" x1="0%" y1="0%" x2="100%" y2="0%">
      <stop offset="0%" style="stop-color:#06b6d4"/>
      <stop offset="100%" style="stop-color:#0891b2"/>
    </linearGradient>

    <linearGradient id="heuristicModGrad" x1="0%" y1="0%" x2="100%" y2="0%">
      <stop offset="0%" style="stop-color:#f97316"/>
      <stop offset="100%" style="stop-color:#ea580c"/>
    </linearGradient>

    <linearGradient id="outputModGrad" x1="0%" y1="0%" x2="100%" y2="0%">
      <stop offset="0%" style="stop-color:#ec4899"/>
      <stop offset="100%" style="stop-color:#db2777"/>
    </linearGradient>

    <linearGradient id="utilsModGrad" x1="0%" y1="0%" x2="100%" y2="0%">
      <stop offset="0%" style="stop-color:#64748b"/>
      <stop offset="100%" style="stop-color:#475569"/>
    </linearGradient>

    <linearGradient id="orchestratorGrad" x1="0%" y1="0%" x2="100%" y2="0%">
      <stop offset="0%" style="stop-color:#3b82f6"/>
      <stop offset="100%" style="stop-color:#1d4ed8"/>
    </linearGradient>

    <filter id="shadow" x="-5%" y="-5%" width="110%" height="115%">
      <feDropShadow dx="2" dy="3" stdDeviation="3" flood-opacity="0.1"/>
    </filter>

    <marker id="depArrow" markerWidth="8" markerHeight="6" refX="7" refY="3" orient="auto">
      <path d="M0,0 L8,3 L0,6 Z" fill="#94a3b8"/>
    </marker>
  </defs>

  <!-- Background -->
  <rect width="1500" height="1800" fill="#f8fafc"/>

  <!-- Header -->
  <rect x="0" y="0" width="1500" height="70" fill="#1e293b"/>
  <text x="750" y="38" class="title" text-anchor="middle" fill="white">CRO Browser Agent - Component Details</text>
  <text x="750" y="58" class="subtitle" text-anchor="middle" fill="#94a3b8">Classes, Methods, and Dependencies</text>

  <!-- ==================== CRO AGENT (Orchestrator) ==================== -->
  <g transform="translate(50, 90)">
    <rect width="700" height="200" rx="10" fill="white" stroke="#e2e8f0" stroke-width="2" filter="url(#shadow)"/>
    <rect width="700" height="35" rx="10" fill="url(#orchestratorGrad)"/>
    <rect x="0" y="25" width="700" height="10" fill="url(#orchestratorGrad)"/>
    <text x="350" y="25" class="module-title" text-anchor="middle">CRO AGENT (Main Orchestrator)</text>
    <text x="350" y="55" class="file-path" text-anchor="middle">src/agent/cro-agent.ts</text>

    <!-- Class box -->
    <g transform="translate(20, 70)">
      <rect width="320" height="115" rx="6" fill="#eff6ff" stroke="#bfdbfe"/>
      <text x="160" y="20" class="class-name" text-anchor="middle">class CROAgent</text>
      <line x1="10" y1="30" x2="310" y2="30" stroke="#bfdbfe"/>

      <text x="15" y="48" class="label-bold">Properties:</text>
      <text x="15" y="63" class="param-text">- browserManager: BrowserManager</text>
      <text x="15" y="76" class="param-text">- toolRegistry: ToolRegistry</text>
      <text x="15" y="89" class="param-text">- stateManager: StateManager</text>
      <text x="15" y="102" class="param-text">- heuristicEngine: HeuristicEngine</text>
    </g>

    <!-- Methods box -->
    <g transform="translate(360, 70)">
      <rect width="320" height="115" rx="6" fill="#f0fdf4" stroke="#bbf7d0"/>
      <text x="160" y="20" class="label-bold" text-anchor="middle">Public Methods</text>
      <line x1="10" y1="30" x2="310" y2="30" stroke="#bbf7d0"/>

      <text x="15" y="48" class="method-name">analyze(url, options)</text>
      <text x="180" y="48" class="return-text">: Promise&lt;CROAnalysisResult&gt;</text>
      <text x="15" y="65" class="method-name">observe()</text>
      <text x="100" y="65" class="return-text">: Promise&lt;PageState&gt;</text>
      <text x="15" y="82" class="method-name">reason(state)</text>
      <text x="120" y="82" class="return-text">: Promise&lt;CROAgentOutput&gt;</text>
      <text x="15" y="99" class="method-name">act(output, state)</text>
      <text x="145" y="99" class="return-text">: Promise&lt;ToolResult&gt;</text>
    </g>
  </g>

  <!-- ==================== AGENT CORE MODULE ==================== -->
  <g transform="translate(770, 90)">
    <rect width="680" height="200" rx="10" fill="white" stroke="#e2e8f0" stroke-width="2" filter="url(#shadow)"/>
    <rect width="680" height="35" rx="10" fill="url(#agentModGrad)"/>
    <rect x="0" y="25" width="680" height="10" fill="url(#agentModGrad)"/>
    <text x="340" y="25" class="module-title" text-anchor="middle">AGENT CORE MODULE</text>
    <text x="340" y="55" class="file-path" text-anchor="middle">src/agent/</text>

    <!-- PromptBuilder -->
    <g transform="translate(15, 70)">
      <rect width="210" height="115" rx="6" fill="#f5f3ff" stroke="#c4b5fd"/>
      <text x="105" y="18" class="class-name" text-anchor="middle">PromptBuilder</text>
      <text x="105" y="32" class="file-path" text-anchor="middle">prompt-builder.ts</text>
      <line x1="10" y1="40" x2="200" y2="40" stroke="#c4b5fd"/>
      <text x="10" y="55" class="method-name">buildSystemPrompt()</text>
      <text x="10" y="70" class="method-name">buildUserPrompt(state)</text>
      <text x="10" y="85" class="param-text">6 sections: identity,</text>
      <text x="10" y="98" class="param-text">expertise, input, output,</text>
      <text x="10" y="111" class="param-text">tools, criteria</text>
    </g>

    <!-- MessageManager -->
    <g transform="translate(235, 70)">
      <rect width="210" height="115" rx="6" fill="#f5f3ff" stroke="#c4b5fd"/>
      <text x="105" y="18" class="class-name" text-anchor="middle">MessageManager</text>
      <text x="105" y="32" class="file-path" text-anchor="middle">message-manager.ts</text>
      <line x1="10" y1="40" x2="200" y2="40" stroke="#c4b5fd"/>
      <text x="10" y="55" class="method-name">addMessage(role, content)</text>
      <text x="10" y="70" class="method-name">getMessages()</text>
      <text x="10" y="85" class="method-name">clear()</text>
      <text x="10" y="100" class="param-text">Token management</text>
    </g>

    <!-- StateManager -->
    <g transform="translate(455, 70)">
      <rect width="210" height="115" rx="6" fill="#f5f3ff" stroke="#c4b5fd"/>
      <text x="105" y="18" class="class-name" text-anchor="middle">StateManager</text>
      <text x="105" y="32" class="file-path" text-anchor="middle">state-manager.ts</text>
      <line x1="10" y1="40" x2="200" y2="40" stroke="#c4b5fd"/>
      <text x="10" y="55" class="method-name">incrementStep()</text>
      <text x="10" y="70" class="method-name">recordFailure()</text>
      <text x="10" y="85" class="method-name">shouldTerminate()</text>
      <text x="10" y="100" class="param-text">Max 10 steps, 3 failures</text>
    </g>
  </g>

  <!-- ==================== BROWSER MODULE ==================== -->
  <g transform="translate(50, 310)">
    <rect width="450" height="290" rx="10" fill="white" stroke="#e2e8f0" stroke-width="2" filter="url(#shadow)"/>
    <rect width="450" height="35" rx="10" fill="url(#browserModGrad)"/>
    <rect x="0" y="25" width="450" height="10" fill="url(#browserModGrad)"/>
    <text x="225" y="25" class="module-title" text-anchor="middle">BROWSER MODULE</text>
    <text x="225" y="55" class="file-path" text-anchor="middle">src/browser/</text>

    <!-- BrowserManager class -->
    <g transform="translate(15, 70)">
      <rect width="420" height="80" rx="6" fill="#ecfdf5" stroke="#a7f3d0"/>
      <text x="210" y="18" class="class-name" text-anchor="middle">class BrowserManager</text>
      <text x="210" y="32" class="file-path" text-anchor="middle">browser-manager.ts</text>
      <line x1="10" y1="40" x2="410" y2="40" stroke="#a7f3d0"/>
      <text x="15" y="55" class="method-name">launch(): Promise&lt;void&gt;</text>
      <text x="15" y="70" class="method-name">getPage(): Promise&lt;Page&gt;</text>
      <text x="220" y="55" class="param-text">// Launch Chromium</text>
      <text x="220" y="70" class="param-text">// Create page instance</text>
    </g>

    <!-- PageLoader class -->
    <g transform="translate(15, 160)">
      <rect width="420" height="55" rx="6" fill="#ecfdf5" stroke="#a7f3d0"/>
      <text x="210" y="18" class="class-name" text-anchor="middle">class PageLoader</text>
      <line x1="10" y1="28" x2="410" y2="28" stroke="#a7f3d0"/>
      <text x="15" y="45" class="method-name">load(page, url)</text>
      <text x="130" y="45" class="return-text">: Promise&lt;PageLoadResult&gt;</text>
    </g>

    <!-- CookieConsentHandler -->
    <g transform="translate(15, 225)">
      <rect width="420" height="55" rx="6" fill="#ecfeff" stroke="#a5f3fc"/>
      <text x="210" y="18" class="class-name" text-anchor="middle">class CookieConsentHandler</text>
      <line x1="10" y1="28" x2="410" y2="28" stroke="#a5f3fc"/>
      <text x="15" y="45" class="method-name">dismiss(page)</text>
      <text x="120" y="45" class="return-text">: Promise&lt;CookieConsentResult&gt;</text>
    </g>
  </g>

  <!-- ==================== DOM EXTRACTION MODULE ==================== -->
  <g transform="translate(520, 310)">
    <rect width="450" height="290" rx="10" fill="white" stroke="#e2e8f0" stroke-width="2" filter="url(#shadow)"/>
    <rect width="450" height="35" rx="10" fill="url(#domModGrad)"/>
    <rect x="0" y="25" width="450" height="10" fill="url(#domModGrad)"/>
    <text x="225" y="25" class="module-title" text-anchor="middle">DOM EXTRACTION MODULE</text>
    <text x="225" y="55" class="file-path" text-anchor="middle">src/browser/dom/</text>

    <!-- DOMExtractor class -->
    <g transform="translate(15, 70)">
      <rect width="420" height="100" rx="6" fill="#fef3c7" stroke="#fcd34d"/>
      <text x="210" y="18" class="class-name" text-anchor="middle">class DOMExtractor</text>
      <text x="210" y="32" class="file-path" text-anchor="middle">extractor.ts</text>
      <line x1="10" y1="40" x2="410" y2="40" stroke="#fcd34d"/>
      <text x="15" y="58" class="method-name">extract(page)</text>
      <text x="110" y="58" class="return-text">: Promise&lt;DOMTree&gt;</text>
      <text x="15" y="75" class="param-text">- Inject buildCroDomTree.js</text>
      <text x="15" y="90" class="param-text">- Classify: cta|form|trust|value_prop|navigation</text>
    </g>

    <!-- CRO Selectors -->
    <g transform="translate(15, 180)">
      <rect width="200" height="100" rx="6" fill="#fffbeb" stroke="#fde68a"/>
      <text x="100" y="18" class="class-name" text-anchor="middle">CRO Selectors</text>
      <text x="100" y="32" class="file-path" text-anchor="middle">cro-selectors.ts</text>
      <line x1="10" y1="40" x2="190" y2="40" stroke="#fde68a"/>
      <text x="15" y="55" class="param-text">CTA patterns</text>
      <text x="15" y="68" class="param-text">Form patterns</text>
      <text x="15" y="81" class="param-text">Trust patterns</text>
      <text x="15" y="94" class="param-text">Value prop patterns</text>
    </g>

    <!-- DOM Serializer -->
    <g transform="translate(225, 180)">
      <rect width="210" height="100" rx="6" fill="#fffbeb" stroke="#fde68a"/>
      <text x="105" y="18" class="class-name" text-anchor="middle">DOM Serializer</text>
      <text x="105" y="32" class="file-path" text-anchor="middle">serializer.ts</text>
      <line x1="10" y1="40" x2="200" y2="40" stroke="#fde68a"/>
      <text x="15" y="55" class="method-name">serialize(tree)</text>
      <text x="15" y="70" class="param-text">LLM-friendly format</text>
      <text x="15" y="85" class="param-text">Token budget aware</text>
    </g>
  </g>

  <!-- ==================== TOOL SYSTEM MODULE ==================== -->
  <g transform="translate(990, 310)">
    <rect width="460" height="290" rx="10" fill="white" stroke="#e2e8f0" stroke-width="2" filter="url(#shadow)"/>
    <rect width="460" height="35" rx="10" fill="url(#toolsModGrad)"/>
    <rect x="0" y="25" width="460" height="10" fill="url(#toolsModGrad)"/>
    <text x="230" y="25" class="module-title" text-anchor="middle">TOOL SYSTEM MODULE</text>
    <text x="230" y="55" class="file-path" text-anchor="middle">src/agent/tools/</text>

    <!-- ToolRegistry -->
    <g transform="translate(15, 70)">
      <rect width="210" height="100" rx="6" fill="#ecfeff" stroke="#67e8f9"/>
      <text x="105" y="18" class="class-name" text-anchor="middle">ToolRegistry</text>
      <text x="105" y="32" class="file-path" text-anchor="middle">tool-registry.ts</text>
      <line x1="10" y1="40" x2="200" y2="40" stroke="#67e8f9"/>
      <text x="10" y="55" class="method-name">register(tool)</text>
      <text x="10" y="70" class="method-name">getToolDefinitions()</text>
      <text x="10" y="85" class="method-name">has(toolName)</text>
      <text x="10" y="100" class="param-text">Map&lt;name, ToolDef&gt;</text>
    </g>

    <!-- ToolExecutor -->
    <g transform="translate(235, 70)">
      <rect width="210" height="100" rx="6" fill="#ecfeff" stroke="#67e8f9"/>
      <text x="105" y="18" class="class-name" text-anchor="middle">ToolExecutor</text>
      <text x="105" y="32" class="file-path" text-anchor="middle">tool-executor.ts</text>
      <line x1="10" y1="40" x2="200" y2="40" stroke="#67e8f9"/>
      <text x="10" y="55" class="method-name">execute(name, params, ctx)</text>
      <text x="10" y="70" class="param-text">Zod param validation</text>
      <text x="10" y="85" class="param-text">Context injection</text>
      <text x="10" y="100" class="return-text">→ ToolResult</text>
    </g>

    <!-- 9 Tools List -->
    <g transform="translate(15, 180)">
      <rect width="430" height="100" rx="6" fill="#f0fdfa" stroke="#5eead4"/>
      <text x="215" y="18" class="label-bold" text-anchor="middle" fill="#0d9488">9 CRO Analysis Tools</text>
      <line x1="10" y1="28" x2="420" y2="28" stroke="#5eead4"/>
      <text x="15" y="45" class="param-text" fill="#0d9488">Analysis:</text>
      <text x="70" y="45" class="param-text">analyze_ctas, analyze_forms, detect_trust_signals</text>
      <text x="70" y="58" class="param-text">assess_value_prop, check_navigation, find_friction</text>
      <text x="15" y="75" class="param-text" fill="#0d9488">Navigation:</text>
      <text x="85" y="75" class="param-text">scroll_page, click, go_to_url</text>
      <text x="15" y="92" class="param-text" fill="#0d9488">Control:</text>
      <text x="70" y="92" class="param-text">done (terminate with summary)</text>
    </g>
  </g>

  <!-- ==================== HEURISTIC ENGINE MODULE ==================== -->
  <g transform="translate(50, 620)">
    <rect width="700" height="280" rx="10" fill="white" stroke="#e2e8f0" stroke-width="2" filter="url(#shadow)"/>
    <rect width="700" height="35" rx="10" fill="url(#heuristicModGrad)"/>
    <rect x="0" y="25" width="700" height="10" fill="url(#heuristicModGrad)"/>
    <text x="350" y="25" class="module-title" text-anchor="middle">HEURISTIC ENGINE MODULE</text>
    <text x="350" y="55" class="file-path" text-anchor="middle">src/heuristics/</text>

    <!-- HeuristicEngine -->
    <g transform="translate(15, 70)">
      <rect width="220" height="100" rx="6" fill="#fff7ed" stroke="#fdba74"/>
      <text x="110" y="18" class="class-name" text-anchor="middle">HeuristicEngine</text>
      <text x="110" y="32" class="file-path" text-anchor="middle">heuristic-engine.ts</text>
      <line x1="10" y1="40" x2="210" y2="40" stroke="#fdba74"/>
      <text x="10" y="55" class="method-name">register(rule)</text>
      <text x="10" y="70" class="method-name">run(pageState, bizType)</text>
      <text x="10" y="85" class="return-text">→ HeuristicResult</text>
      <text x="10" y="98" class="param-text">10 rules registered</text>
    </g>

    <!-- BusinessTypeDetector -->
    <g transform="translate(245, 70)">
      <rect width="220" height="100" rx="6" fill="#fff7ed" stroke="#fdba74"/>
      <text x="110" y="18" class="class-name" text-anchor="middle">BusinessTypeDetector</text>
      <text x="110" y="32" class="file-path" text-anchor="middle">business-type-detector.ts</text>
      <line x1="10" y1="40" x2="210" y2="40" stroke="#fdba74"/>
      <text x="10" y="55" class="method-name">detect(pageState)</text>
      <text x="10" y="70" class="return-text">→ BusinessTypeResult</text>
      <text x="10" y="85" class="param-text">ecommerce, saas, banking</text>
      <text x="10" y="98" class="param-text">insurance, travel, media</text>
    </g>

    <!-- SeverityScorer -->
    <g transform="translate(475, 70)">
      <rect width="210" height="100" rx="6" fill="#fff7ed" stroke="#fdba74"/>
      <text x="105" y="18" class="class-name" text-anchor="middle">SeverityScorer</text>
      <text x="105" y="32" class="file-path" text-anchor="middle">severity-scorer.ts</text>
      <line x1="10" y1="40" x2="200" y2="40" stroke="#fdba74"/>
      <text x="10" y="55" class="method-name">adjust(insight, bizType)</text>
      <text x="10" y="70" class="return-text">→ Severity</text>
      <text x="10" y="85" class="param-text">Context-aware</text>
      <text x="10" y="98" class="param-text">severity adjustment</text>
    </g>

    <!-- 10 Rules -->
    <g transform="translate(15, 180)">
      <rect width="670" height="90" rx="6" fill="#fef3c7" stroke="#fcd34d"/>
      <text x="335" y="18" class="label-bold" text-anchor="middle" fill="#b45309">10 Heuristic Rules (H001-H010)</text>
      <line x1="10" y1="28" x2="660" y2="28" stroke="#fcd34d"/>
      <text x="15" y="45" class="param-text" fill="#b45309">CTA:</text>
      <text x="45" y="45" class="param-text">H001 vague_cta_text, H002 no_cta_above_fold</text>
      <text x="340" y="45" class="param-text" fill="#b45309">Form:</text>
      <text x="375" y="45" class="param-text">H003 form_field_overload, H004 missing_field_label</text>
      <text x="15" y="62" class="param-text" fill="#b45309">Trust:</text>
      <text x="50" y="62" class="param-text">H005 no_trust_above_fold, H006 no_security_badge</text>
      <text x="340" y="62" class="param-text" fill="#b45309">Value:</text>
      <text x="380" y="62" class="param-text">H007 unclear_value_prop, H008 headline_too_long</text>
      <text x="15" y="79" class="param-text" fill="#b45309">Nav:</text>
      <text x="45" y="79" class="param-text">H009 no_breadcrumbs, H010 no_search_ecommerce</text>
    </g>
  </g>

  <!-- ==================== OUTPUT MODULE ==================== -->
  <g transform="translate(770, 620)">
    <rect width="680" height="280" rx="10" fill="white" stroke="#e2e8f0" stroke-width="2" filter="url(#shadow)"/>
    <rect width="680" height="35" rx="10" fill="url(#outputModGrad)"/>
    <rect x="0" y="25" width="680" height="10" fill="url(#outputModGrad)"/>
    <text x="340" y="25" class="module-title" text-anchor="middle">OUTPUT MODULE</text>
    <text x="340" y="55" class="file-path" text-anchor="middle">src/output/</text>

    <!-- HypothesisGenerator -->
    <g transform="translate(15, 70)">
      <rect width="210" height="90" rx="6" fill="#fdf2f8" stroke="#fbcfe8"/>
      <text x="105" y="18" class="class-name" text-anchor="middle">HypothesisGenerator</text>
      <text x="105" y="32" class="file-path" text-anchor="middle">hypothesis-generator.ts</text>
      <line x1="10" y1="40" x2="200" y2="40" stroke="#fbcfe8"/>
      <text x="10" y="55" class="method-name">generate(insights)</text>
      <text x="10" y="70" class="return-text">→ Hypothesis[]</text>
      <text x="10" y="85" class="param-text">A/B test specs</text>
    </g>

    <!-- InsightDeduplicator -->
    <g transform="translate(235, 70)">
      <rect width="210" height="90" rx="6" fill="#fdf2f8" stroke="#fbcfe8"/>
      <text x="105" y="18" class="class-name" text-anchor="middle">InsightDeduplicator</text>
      <text x="105" y="32" class="file-path" text-anchor="middle">insight-deduplicator.ts</text>
      <line x1="10" y1="40" x2="200" y2="40" stroke="#fbcfe8"/>
      <text x="10" y="55" class="method-name">deduplicate(insights)</text>
      <text x="10" y="70" class="return-text">→ CROInsight[]</text>
      <text x="10" y="85" class="param-text">Remove duplicates</text>
    </g>

    <!-- InsightPrioritizer -->
    <g transform="translate(455, 70)">
      <rect width="210" height="90" rx="6" fill="#fdf2f8" stroke="#fbcfe8"/>
      <text x="105" y="18" class="class-name" text-anchor="middle">InsightPrioritizer</text>
      <text x="105" y="32" class="file-path" text-anchor="middle">insight-prioritizer.ts</text>
      <line x1="10" y1="40" x2="200" y2="40" stroke="#fbcfe8"/>
      <text x="10" y="55" class="method-name">prioritize(insights)</text>
      <text x="10" y="70" class="return-text">→ CROInsight[]</text>
      <text x="10" y="85" class="param-text">Sort by severity</text>
    </g>

    <!-- MarkdownReporter -->
    <g transform="translate(15, 170)">
      <rect width="210" height="100" rx="6" fill="#fce7f3" stroke="#f9a8d4"/>
      <text x="105" y="18" class="class-name" text-anchor="middle">MarkdownReporter</text>
      <text x="105" y="32" class="file-path" text-anchor="middle">markdown-reporter.ts</text>
      <line x1="10" y1="40" x2="200" y2="40" stroke="#f9a8d4"/>
      <text x="10" y="55" class="method-name">generate(result)</text>
      <text x="10" y="70" class="return-text">→ string (markdown)</text>
      <text x="10" y="85" class="param-text">6 sections: Summary,</text>
      <text x="10" y="98" class="param-text">Issues, A/B Tests</text>
    </g>

    <!-- JSONExporter -->
    <g transform="translate(235, 170)">
      <rect width="210" height="100" rx="6" fill="#fce7f3" stroke="#f9a8d4"/>
      <text x="105" y="18" class="class-name" text-anchor="middle">JSONExporter</text>
      <text x="105" y="32" class="file-path" text-anchor="middle">json-exporter.ts</text>
      <line x1="10" y1="40" x2="200" y2="40" stroke="#f9a8d4"/>
      <text x="10" y="55" class="method-name">export(result)</text>
      <text x="10" y="70" class="return-text">→ string (JSON)</text>
      <text x="10" y="85" class="param-text">Complete result</text>
      <text x="10" y="98" class="param-text">serialization</text>
    </g>

    <!-- FileWriter -->
    <g transform="translate(455, 170)">
      <rect width="210" height="100" rx="6" fill="#fce7f3" stroke="#f9a8d4"/>
      <text x="105" y="18" class="class-name" text-anchor="middle">FileWriter</text>
      <text x="105" y="32" class="file-path" text-anchor="middle">file-writer.ts</text>
      <line x1="10" y1="40" x2="200" y2="40" stroke="#f9a8d4"/>
      <text x="10" y="55" class="method-name">write(content, path)</text>
      <text x="10" y="70" class="return-text">→ FileWriteResult</text>
      <text x="10" y="85" class="param-text">Create dirs</text>
      <text x="10" y="98" class="param-text">Handle overwrites</text>
    </g>
  </g>

  <!-- ==================== DATA MODELS MODULE ==================== -->
  <g transform="translate(50, 920)">
    <rect width="900" height="250" rx="10" fill="white" stroke="#e2e8f0" stroke-width="2" filter="url(#shadow)"/>
    <rect width="900" height="35" rx="10" fill="#1e293b"/>
    <rect x="0" y="25" width="900" height="10" fill="#1e293b"/>
    <text x="450" y="25" class="module-title" text-anchor="middle">DATA MODELS (Zod Schemas)</text>
    <text x="450" y="55" class="file-path" text-anchor="middle">src/models/</text>

    <!-- DOMTree -->
    <g transform="translate(15, 65)">
      <rect width="170" height="170" rx="6" fill="#eff6ff" stroke="#bfdbfe"/>
      <text x="85" y="18" class="label-bold" text-anchor="middle">DOMTree</text>
      <line x1="10" y1="25" x2="160" y2="25" stroke="#bfdbfe"/>
      <text x="10" y="42" class="param-text">nodes: DOMNode[]</text>
      <text x="10" y="57" class="param-text">metadata: {</text>
      <text x="20" y="72" class="param-text">pageUrl</text>
      <text x="20" y="87" class="param-text">pageTitle</text>
      <text x="20" y="102" class="param-text">extractedAt</text>
      <text x="10" y="117" class="param-text">}</text>
      <text x="10" y="140" class="file-path">dom-tree.ts</text>
    </g>

    <!-- DOMNode -->
    <g transform="translate(195, 65)">
      <rect width="170" height="170" rx="6" fill="#eff6ff" stroke="#bfdbfe"/>
      <text x="85" y="18" class="label-bold" text-anchor="middle">DOMNode</text>
      <line x1="10" y1="25" x2="160" y2="25" stroke="#bfdbfe"/>
      <text x="10" y="42" class="param-text">id: number</text>
      <text x="10" y="57" class="param-text">tag: string</text>
      <text x="10" y="72" class="param-text">text: string</text>
      <text x="10" y="87" class="param-text">classification:</text>
      <text x="15" y="102" class="param-text">CROClassification</text>
      <text x="10" y="117" class="param-text">boundingBox</text>
      <text x="10" y="132" class="param-text">visible: boolean</text>
    </g>

    <!-- CROInsight -->
    <g transform="translate(375, 65)">
      <rect width="170" height="170" rx="6" fill="#f0fdf4" stroke="#bbf7d0"/>
      <text x="85" y="18" class="label-bold" text-anchor="middle">CROInsight</text>
      <line x1="10" y1="25" x2="160" y2="25" stroke="#bbf7d0"/>
      <text x="10" y="42" class="param-text">id: string</text>
      <text x="10" y="57" class="param-text">type: InsightCategory</text>
      <text x="10" y="72" class="param-text">severity: Severity</text>
      <text x="10" y="87" class="param-text">element?: number</text>
      <text x="10" y="102" class="param-text">issue: string</text>
      <text x="10" y="117" class="param-text">recommendation</text>
      <text x="10" y="132" class="param-text">source: tool|heuristic</text>
      <text x="10" y="155" class="file-path">cro-insight.ts</text>
    </g>

    <!-- Hypothesis -->
    <g transform="translate(555, 65)">
      <rect width="170" height="170" rx="6" fill="#fef3c7" stroke="#fcd34d"/>
      <text x="85" y="18" class="label-bold" text-anchor="middle">Hypothesis</text>
      <line x1="10" y1="25" x2="160" y2="25" stroke="#fcd34d"/>
      <text x="10" y="42" class="param-text">id: string</text>
      <text x="10" y="57" class="param-text">title: string</text>
      <text x="10" y="72" class="param-text">hypothesis: string</text>
      <text x="10" y="87" class="param-text">control: string</text>
      <text x="10" y="102" class="param-text">treatment: string</text>
      <text x="10" y="117" class="param-text">metric: string</text>
      <text x="10" y="132" class="param-text">expectedImpact</text>
      <text x="10" y="155" class="file-path">hypothesis.ts</text>
    </g>

    <!-- PageState -->
    <g transform="translate(735, 65)">
      <rect width="150" height="170" rx="6" fill="#f5f3ff" stroke="#c4b5fd"/>
      <text x="75" y="18" class="label-bold" text-anchor="middle">PageState</text>
      <line x1="10" y1="25" x2="140" y2="25" stroke="#c4b5fd"/>
      <text x="10" y="42" class="param-text">url: string</text>
      <text x="10" y="57" class="param-text">title: string</text>
      <text x="10" y="72" class="param-text">domTree: DOMTree</text>
      <text x="10" y="87" class="param-text">viewport</text>
      <text x="10" y="102" class="param-text">scrollPosition</text>
      <text x="10" y="117" class="param-text">timestamp</text>
      <text x="10" y="140" class="file-path">page-state.ts</text>
    </g>
  </g>

  <!-- ==================== UTILS MODULE ==================== -->
  <g transform="translate(970, 920)">
    <rect width="480" height="250" rx="10" fill="white" stroke="#e2e8f0" stroke-width="2" filter="url(#shadow)"/>
    <rect width="480" height="35" rx="10" fill="url(#utilsModGrad)"/>
    <rect x="0" y="25" width="480" height="10" fill="url(#utilsModGrad)"/>
    <text x="240" y="25" class="module-title" text-anchor="middle">UTILS MODULE</text>
    <text x="240" y="55" class="file-path" text-anchor="middle">src/utils/</text>

    <!-- Logger -->
    <g transform="translate(15, 70)">
      <rect width="220" height="85" rx="6" fill="#f1f5f9" stroke="#cbd5e1"/>
      <text x="110" y="18" class="class-name" text-anchor="middle">Logger</text>
      <text x="110" y="33" class="file-path" text-anchor="middle">logger.ts</text>
      <line x1="10" y1="40" x2="210" y2="40" stroke="#cbd5e1"/>
      <text x="15" y="55" class="method-name">debug(msg, ctx?)</text>
      <text x="15" y="68" class="method-name">info(msg, ctx?)</text>
      <text x="15" y="81" class="method-name">warn(msg, ctx?)</text>
    </g>

    <!-- Validator -->
    <g transform="translate(245, 70)">
      <rect width="220" height="85" rx="6" fill="#f1f5f9" stroke="#cbd5e1"/>
      <text x="110" y="18" class="class-name" text-anchor="middle">Validator</text>
      <text x="110" y="33" class="file-path" text-anchor="middle">validator.ts</text>
      <line x1="10" y1="40" x2="210" y2="40" stroke="#cbd5e1"/>
      <text x="15" y="55" class="method-name">validateUrl(url)</text>
      <text x="15" y="68" class="method-name">validateEnvironment()</text>
      <text x="15" y="81" class="method-name">isApiKeyConfigured()</text>
    </g>

    <!-- Logger output format -->
    <g transform="translate(15, 165)">
      <rect width="450" height="70" rx="4" fill="#1e293b"/>
      <text x="225" y="18" fill="#94a3b8" font-size="10" text-anchor="middle">JSON LOG OUTPUT</text>
      <text x="10" y="38" fill="#10b981" font-family="Consolas" font-size="9">{"timestamp":"...","level":"info","module":"CROAgent",</text>
      <text x="10" y="52" fill="#10b981" font-family="Consolas" font-size="9"> "message":"Step 3: Executing analyze_ctas","context":{...}}</text>
    </g>
  </g>

  <!-- ==================== FILE STRUCTURE ==================== -->
  <g transform="translate(50, 1190)">
    <rect width="700" height="580" rx="10" fill="white" stroke="#e2e8f0" stroke-width="2" filter="url(#shadow)"/>
    <rect width="700" height="35" rx="10" fill="#1e293b"/>
    <rect x="0" y="25" width="700" height="10" fill="#1e293b"/>
    <text x="350" y="25" class="module-title" text-anchor="middle">PROJECT FILE STRUCTURE</text>

    <g transform="translate(20, 55)">
      <text y="0" class="method-name" fill="#f59e0b">browser-agent/</text>
      <text y="18" class="param-text">+-- src/</text>
      <text y="33" class="param-text">|   +-- index.ts</text>
      <text y="33" class="file-path" x="200">Main exports</text>
      <text y="48" class="param-text">|   +-- cli.ts</text>
      <text y="48" class="file-path" x="200">CLI entry (3 modes)</text>
      <text y="63" class="param-text">|   +-- agent/</text>
      <text y="63" class="file-path" x="200" fill="#8b5cf6">Agent module</text>
      <text y="78" class="param-text">|   |   +-- cro-agent.ts</text>
      <text y="78" class="file-path" x="200">Main orchestrator</text>
      <text y="93" class="param-text">|   |   +-- prompt-builder.ts</text>
      <text y="108" class="param-text">|   |   +-- message-manager.ts</text>
      <text y="123" class="param-text">|   |   +-- state-manager.ts</text>
      <text y="138" class="param-text">|   |   +-- score-calculator.ts</text>
      <text y="153" class="param-text">|   |   +-- tools/</text>
      <text y="153" class="file-path" x="200" fill="#06b6d4">Tool system</text>
      <text y="168" class="param-text">|   |       +-- tool-registry.ts</text>
      <text y="183" class="param-text">|   |       +-- tool-executor.ts</text>
      <text y="198" class="param-text">|   |       +-- cro/</text>
      <text y="198" class="file-path" x="200">9 analysis tools</text>
      <text y="213" class="param-text">|   +-- browser/</text>
      <text y="213" class="file-path" x="200" fill="#10b981">Browser module</text>
      <text y="228" class="param-text">|   |   +-- browser-manager.ts</text>
      <text y="243" class="param-text">|   |   +-- page-loader.ts</text>
      <text y="258" class="param-text">|   |   +-- cookie-handler.ts</text>
      <text y="273" class="param-text">|   |   +-- dom/</text>
      <text y="273" class="file-path" x="200" fill="#f59e0b">DOM extraction</text>
      <text y="288" class="param-text">|   |       +-- extractor.ts</text>
      <text y="303" class="param-text">|   |       +-- cro-selectors.ts</text>
      <text y="318" class="param-text">|   |       +-- serializer.ts</text>
      <text y="333" class="param-text">|   +-- heuristics/</text>
      <text y="333" class="file-path" x="200" fill="#f97316">Heuristic engine</text>
      <text y="348" class="param-text">|   |   +-- heuristic-engine.ts</text>
      <text y="363" class="param-text">|   |   +-- business-type-detector.ts</text>
      <text y="378" class="param-text">|   |   +-- severity-scorer.ts</text>
      <text y="393" class="param-text">|   |   +-- rules/</text>
      <text y="393" class="file-path" x="200">10 rules (H001-H010)</text>
      <text y="408" class="param-text">|   +-- output/</text>
      <text y="408" class="file-path" x="200" fill="#ec4899">Output module</text>
      <text y="423" class="param-text">|   |   +-- markdown-reporter.ts</text>
      <text y="438" class="param-text">|   |   +-- json-exporter.ts</text>
      <text y="453" class="param-text">|   |   +-- file-writer.ts</text>
      <text y="468" class="param-text">|   |   +-- hypothesis-generator.ts</text>
      <text y="483" class="param-text">|   +-- models/</text>
      <text y="483" class="file-path" x="200">Zod schemas</text>
      <text y="498" class="param-text">|   +-- types/</text>
      <text y="498" class="file-path" x="200">TypeScript types</text>
      <text y="513" class="param-text">|   +-- utils/</text>
      <text y="513" class="file-path" x="200">Utilities</text>
      <text y="528" class="param-text">+-- tests/</text>
      <text y="528" class="file-path" x="200">408+ test cases</text>
      <text y="543" class="param-text">+-- specs/</text>
      <text y="543" class="file-path" x="200">Specifications</text>
      <text y="558" class="param-text">+-- design/</text>
      <text y="558" class="file-path" x="200">Architecture diagrams</text>
    </g>
  </g>

  <!-- ==================== EXTERNAL DEPENDENCIES ==================== -->
  <g transform="translate(770, 1190)">
    <rect width="680" height="580" rx="10" fill="white" stroke="#e2e8f0" stroke-width="2" filter="url(#shadow)"/>
    <rect width="680" height="35" rx="10" fill="#ef4444"/>
    <rect x="0" y="25" width="680" height="10" fill="#ef4444"/>
    <text x="340" y="25" class="module-title" text-anchor="middle">EXTERNAL DEPENDENCIES</text>

    <!-- Production Dependencies -->
    <g transform="translate(20, 55)">
      <rect width="640" height="180" rx="6" fill="#fef2f2" stroke="#fecaca"/>
      <text x="320" y="22" class="label-bold" text-anchor="middle" fill="#dc2626">Production Dependencies</text>
      <line x1="20" y1="32" x2="620" y2="32" stroke="#fecaca"/>

      <!-- Playwright -->
      <g transform="translate(20, 45)">
        <rect width="140" height="55" rx="6" fill="#ecfdf5" stroke="#10b981" stroke-width="2"/>
        <text x="70" y="22" class="class-name" text-anchor="middle" fill="#059669">Playwright</text>
        <text x="70" y="40" class="param-text" text-anchor="middle">Browser automation</text>
      </g>

      <!-- LangChain -->
      <g transform="translate(170, 45)">
        <rect width="140" height="55" rx="6" fill="#f5f3ff" stroke="#8b5cf6" stroke-width="2"/>
        <text x="70" y="22" class="class-name" text-anchor="middle" fill="#7c3aed">LangChain</text>
        <text x="70" y="40" class="param-text" text-anchor="middle">LLM orchestration</text>
      </g>

      <!-- OpenAI -->
      <g transform="translate(320, 45)">
        <rect width="140" height="55" rx="6" fill="#fef2f2" stroke="#ef4444" stroke-width="2"/>
        <text x="70" y="22" class="class-name" text-anchor="middle" fill="#dc2626">OpenAI API</text>
        <text x="70" y="40" class="param-text" text-anchor="middle">GPT-4 model</text>
      </g>

      <!-- Zod -->
      <g transform="translate(470, 45)">
        <rect width="140" height="55" rx="6" fill="#eff6ff" stroke="#3b82f6" stroke-width="2"/>
        <text x="70" y="22" class="class-name" text-anchor="middle" fill="#1d4ed8">Zod</text>
        <text x="70" y="40" class="param-text" text-anchor="middle">Schema validation</text>
      </g>

      <!-- dotenv -->
      <g transform="translate(20, 110)">
        <rect width="100" height="50" rx="6" fill="#f1f5f9" stroke="#94a3b8"/>
        <text x="50" y="22" class="class-name" text-anchor="middle">dotenv</text>
        <text x="50" y="38" class="param-text" text-anchor="middle">Env config</text>
      </g>
    </g>

    <!-- Dev Dependencies -->
    <g transform="translate(20, 250)">
      <rect width="640" height="100" rx="6" fill="#f8fafc" stroke="#e2e8f0"/>
      <text x="320" y="22" class="label-bold" text-anchor="middle">Development Dependencies</text>
      <line x1="20" y1="32" x2="620" y2="32" stroke="#e2e8f0"/>

      <g transform="translate(20, 45)">
        <rect width="90" height="40" rx="4" fill="#3178c6"/>
        <text x="45" y="25" fill="white" font-size="10" font-weight="bold" text-anchor="middle">TypeScript</text>
      </g>
      <g transform="translate(120, 45)">
        <rect width="70" height="40" rx="4" fill="#729b1b"/>
        <text x="35" y="25" fill="white" font-size="10" font-weight="bold" text-anchor="middle">Vitest</text>
      </g>
      <g transform="translate(200, 45)">
        <rect width="70" height="40" rx="4" fill="#4b32c3"/>
        <text x="35" y="25" fill="white" font-size="10" font-weight="bold" text-anchor="middle">ESLint</text>
      </g>
      <g transform="translate(280, 45)">
        <rect width="70" height="40" rx="4" fill="#f7b93e"/>
        <text x="35" y="25" fill="#1a1a1a" font-size="10" font-weight="bold" text-anchor="middle">Prettier</text>
      </g>
      <g transform="translate(360, 45)">
        <rect width="60" height="40" rx="4" fill="#007acc"/>
        <text x="30" y="25" fill="white" font-size="10" font-weight="bold" text-anchor="middle">tsx</text>
      </g>
      <g transform="translate(430, 45)">
        <rect width="90" height="40" rx="4" fill="#339933"/>
        <text x="45" y="25" fill="white" font-size="10" font-weight="bold" text-anchor="middle">Node.js 20</text>
      </g>
      <g transform="translate(530, 45)">
        <rect width="90" height="40" rx="4" fill="#cb3837"/>
        <text x="45" y="25" fill="white" font-size="9" font-weight="bold" text-anchor="middle">@playwright</text>
      </g>
    </g>

    <!-- Cookie Consent Platforms -->
    <g transform="translate(20, 365)">
      <rect width="640" height="85" rx="6" fill="#ecfeff" stroke="#a5f3fc"/>
      <text x="320" y="20" class="label-bold" text-anchor="middle" fill="#0891b2">Supported Cookie Consent Platforms (CMPs)</text>
      <line x1="20" y1="30" x2="620" y2="30" stroke="#a5f3fc"/>
      <g transform="translate(20, 40)">
        <rect width="70" height="32" rx="4" fill="#0891b2"/>
        <text x="35" y="21" fill="white" font-size="9" font-weight="bold" text-anchor="middle">OneTrust</text>
      </g>
      <g transform="translate(100, 40)">
        <rect width="70" height="32" rx="4" fill="#0891b2"/>
        <text x="35" y="21" fill="white" font-size="9" font-weight="bold" text-anchor="middle">Cookiebot</text>
      </g>
      <g transform="translate(180, 40)">
        <rect width="80" height="32" rx="4" fill="#0891b2"/>
        <text x="40" y="21" fill="white" font-size="9" font-weight="bold" text-anchor="middle">Usercentrics</text>
      </g>
      <g transform="translate(270, 40)">
        <rect width="70" height="32" rx="4" fill="#0891b2"/>
        <text x="35" y="21" fill="white" font-size="9" font-weight="bold" text-anchor="middle">TrustArc</text>
      </g>
      <g transform="translate(350, 40)">
        <rect width="70" height="32" rx="4" fill="#0891b2"/>
        <text x="35" y="21" fill="white" font-size="9" font-weight="bold" text-anchor="middle">Quantcast</text>
      </g>
      <g transform="translate(430, 40)">
        <rect width="60" height="32" rx="4" fill="#0891b2"/>
        <text x="30" y="21" fill="white" font-size="9" font-weight="bold" text-anchor="middle">Didomi</text>
      </g>
      <g transform="translate(500, 40)">
        <rect width="60" height="32" rx="4" fill="#0891b2"/>
        <text x="30" y="21" fill="white" font-size="9" font-weight="bold" text-anchor="middle">Osano</text>
      </g>
      <g transform="translate(570, 40)">
        <rect width="60" height="32" rx="4" fill="#64748b"/>
        <text x="30" y="21" fill="white" font-size="9" font-weight="bold" text-anchor="middle">Heuristic</text>
      </g>
    </g>

    <!-- CLI Modes -->
    <g transform="translate(20, 465)">
      <rect width="640" height="100" rx="6" fill="#f1f5f9" stroke="#cbd5e1"/>
      <text x="320" y="20" class="label-bold" text-anchor="middle">CLI Modes &amp; Options</text>
      <line x1="20" y1="30" x2="620" y2="30" stroke="#cbd5e1"/>
      <text x="20" y="48" class="param-text" fill="#3b82f6">Default:</text>
      <text x="70" y="48" class="param-text">CRO Analysis (npm run start -- https://example.com)</text>
      <text x="20" y="63" class="param-text" fill="#64748b">--legacy:</text>
      <text x="75" y="63" class="param-text">Original heading extraction mode</text>
      <text x="20" y="78" class="param-text" fill="#64748b">--tool:</text>
      <text x="60" y="78" class="param-text">Debug specific tool (--tool analyze_ctas)</text>
      <text x="20" y="93" class="param-text" fill="#64748b">Output:</text>
      <text x="65" y="93" class="param-text">--output-format console|markdown|json  --output-file &lt;path&gt;  --max-steps &lt;n&gt;</text>
    </g>
  </g>
</svg>