<svg xmlns="http://www.w3.org/2000/svg" viewBox="0 0 1400 1100">
  <defs>
    <style>
      .title { font: bold 26px 'Segoe UI', Arial, sans-serif; fill: #1e293b; }
      .subtitle { font: 14px 'Segoe UI', Arial, sans-serif; fill: #64748b; }
      .stage-title { font: bold 14px 'Segoe UI', Arial, sans-serif; fill: white; }
      .stage-num { font: bold 20px 'Segoe UI', Arial, sans-serif; fill: white; }
      .box-title { font: bold 12px 'Segoe UI', Arial, sans-serif; fill: #1e293b; }
      .box-text { font: 11px 'Segoe UI', Arial, sans-serif; fill: #475569; }
      .code-text { font: 10px 'Consolas', monospace; fill: #6366f1; }
      .data-label { font: bold 10px 'Segoe UI', Arial, sans-serif; fill: #059669; }
      .arrow-label { font: 10px 'Segoe UI', Arial, sans-serif; fill: #64748b; }
    </style>

    <linearGradient id="stage1Grad" x1="0%" y1="0%" x2="100%" y2="0%">
      <stop offset="0%" style="stop-color:#3b82f6"/>
      <stop offset="100%" style="stop-color:#1d4ed8"/>
    </linearGradient>

    <linearGradient id="stage2Grad" x1="0%" y1="0%" x2="100%" y2="0%">
      <stop offset="0%" style="stop-color:#10b981"/>
      <stop offset="100%" style="stop-color:#059669"/>
    </linearGradient>

    <linearGradient id="stage2bGrad" x1="0%" y1="0%" x2="100%" y2="0%">
      <stop offset="0%" style="stop-color:#06b6d4"/>
      <stop offset="100%" style="stop-color:#0891b2"/>
    </linearGradient>

    <linearGradient id="stage3Grad" x1="0%" y1="0%" x2="100%" y2="0%">
      <stop offset="0%" style="stop-color:#f59e0b"/>
      <stop offset="100%" style="stop-color:#d97706"/>
    </linearGradient>

    <linearGradient id="stage4Grad" x1="0%" y1="0%" x2="100%" y2="0%">
      <stop offset="0%" style="stop-color:#8b5cf6"/>
      <stop offset="100%" style="stop-color:#7c3aed"/>
    </linearGradient>

    <linearGradient id="stage5Grad" x1="0%" y1="0%" x2="100%" y2="0%">
      <stop offset="0%" style="stop-color:#ec4899"/>
      <stop offset="100%" style="stop-color:#db2777"/>
    </linearGradient>

    <filter id="shadow" x="-10%" y="-10%" width="120%" height="130%">
      <feDropShadow dx="2" dy="3" stdDeviation="3" flood-opacity="0.12"/>
    </filter>

    <marker id="flowArrow" markerWidth="12" markerHeight="8" refX="11" refY="4" orient="auto">
      <path d="M0,0 L12,4 L0,8 L3,4 Z" fill="#3b82f6"/>
    </marker>

    <marker id="dataArrow" markerWidth="10" markerHeight="6" refX="9" refY="3" orient="auto">
      <path d="M0,0 L10,3 L0,6 Z" fill="#10b981"/>
    </marker>
  </defs>

  <!-- Background -->
  <rect width="1400" height="1100" fill="#f8fafc"/>

  <!-- Header -->
  <rect x="0" y="0" width="1400" height="70" fill="#1e293b"/>
  <text x="700" y="38" class="title" text-anchor="middle" fill="white">Browser Agent - Data Flow Pipeline</text>
  <text x="700" y="58" class="subtitle" text-anchor="middle" fill="#94a3b8">Detailed Stage-by-Stage Processing Flow</text>

  <!-- ==================== STAGE 1: CLI INPUT ==================== -->
  <g transform="translate(50, 90)">
    <!-- Stage header -->
    <rect width="380" height="40" rx="8" fill="url(#stage1Grad)"/>
    <text x="25" y="27" class="stage-num">1</text>
    <text x="55" y="27" class="stage-title">CLI INPUT &amp; INITIALIZATION</text>

    <!-- Stage content -->
    <rect x="0" y="45" width="380" height="160" rx="8" fill="white" stroke="#e2e8f0" stroke-width="2" filter="url(#shadow)"/>

    <!-- CLI Box -->
    <g transform="translate(15, 60)">
      <rect width="160" height="70" rx="6" fill="#eff6ff" stroke="#bfdbfe"/>
      <text x="80" y="20" class="box-title" text-anchor="middle">CLI Entry (cli.ts)</text>
      <text x="80" y="38" class="box-text" text-anchor="middle">Parse arguments</text>
      <text x="80" y="52" class="box-text" text-anchor="middle">Load .env file</text>
      <text x="80" y="66" class="box-text" text-anchor="middle">Create BrowserAgent</text>
    </g>

    <!-- Config Box -->
    <g transform="translate(195, 60)">
      <rect width="170" height="70" rx="6" fill="#f0fdf4" stroke="#bbf7d0"/>
      <text x="85" y="20" class="box-title" text-anchor="middle">Configuration</text>
      <text x="85" y="38" class="code-text" text-anchor="middle">--headless: false</text>
      <text x="85" y="52" class="code-text" text-anchor="middle">--wait-until: load</text>
      <text x="85" y="66" class="code-text" text-anchor="middle">--post-load-wait: 5000</text>
    </g>

    <!-- Input data -->
    <g transform="translate(15, 145)">
      <rect width="350" height="45" rx="6" fill="#fef3c7" stroke="#fde68a"/>
      <text x="175" y="18" class="data-label" text-anchor="middle">INPUT DATA</text>
      <text x="175" y="35" class="code-text" text-anchor="middle">npm run start -- https://example.com --headless --verbose</text>
    </g>
  </g>

  <!-- Flow arrow 1 -->
  <g transform="translate(440, 170)">
    <line x1="0" y1="0" x2="70" y2="0" stroke="#3b82f6" stroke-width="3" marker-end="url(#flowArrow)"/>
    <text x="35" y="-8" class="arrow-label" text-anchor="middle">URL(s)</text>
  </g>

  <!-- ==================== STAGE 2: BROWSER LOADING ==================== -->
  <g transform="translate(520, 90)">
    <!-- Stage header -->
    <rect width="380" height="40" rx="8" fill="url(#stage2Grad)"/>
    <text x="25" y="27" class="stage-num">2</text>
    <text x="55" y="27" class="stage-title">BROWSER &amp; PAGE LOADING</text>

    <!-- Stage content -->
    <rect x="0" y="45" width="380" height="160" rx="8" fill="white" stroke="#e2e8f0" stroke-width="2" filter="url(#shadow)"/>

    <!-- BrowserManager Box -->
    <g transform="translate(15, 60)">
      <rect width="160" height="70" rx="6" fill="#ecfdf5" stroke="#a7f3d0"/>
      <text x="80" y="20" class="box-title" text-anchor="middle">BrowserManager</text>
      <text x="80" y="38" class="box-text" text-anchor="middle">Launch Chromium</text>
      <text x="80" y="52" class="box-text" text-anchor="middle">ignoreHTTPSErrors</text>
      <text x="80" y="66" class="box-text" text-anchor="middle">New page instance</text>
    </g>

    <!-- PageLoader Box -->
    <g transform="translate(195, 60)">
      <rect width="170" height="70" rx="6" fill="#ecfdf5" stroke="#a7f3d0"/>
      <text x="85" y="20" class="box-title" text-anchor="middle">PageLoader</text>
      <text x="85" y="38" class="box-text" text-anchor="middle">Navigate to URL</text>
      <text x="85" y="52" class="box-text" text-anchor="middle">Hybrid wait strategy</text>
      <text x="85" y="66" class="box-text" text-anchor="middle">Capture page title</text>
    </g>

    <!-- Output data -->
    <g transform="translate(15, 145)">
      <rect width="350" height="45" rx="6" fill="#d1fae5" stroke="#6ee7b7"/>
      <text x="175" y="18" class="data-label" text-anchor="middle">OUTPUT: PageLoadResult</text>
      <text x="175" y="35" class="code-text" text-anchor="middle">{ success: true, url, title, loadTimeMs: 2340 }</text>
    </g>
  </g>

  <!-- Flow arrow 2 -->
  <g transform="translate(910, 170)">
    <line x1="0" y1="0" x2="70" y2="0" stroke="#10b981" stroke-width="3" marker-end="url(#flowArrow)"/>
    <text x="35" y="-8" class="arrow-label" text-anchor="middle">Page</text>
  </g>

  <!-- ==================== STAGE 2B: COOKIE CONSENT ==================== -->
  <g transform="translate(990, 90)">
    <!-- Stage header -->
    <rect width="360" height="40" rx="8" fill="url(#stage2bGrad)"/>
    <text x="25" y="27" class="stage-num">3</text>
    <text x="55" y="27" class="stage-title">COOKIE CONSENT DISMISSAL</text>

    <!-- Stage content -->
    <rect x="0" y="45" width="360" height="160" rx="8" fill="white" stroke="#e2e8f0" stroke-width="2" filter="url(#shadow)"/>

    <!-- CookieConsentHandler Box -->
    <g transform="translate(15, 60)">
      <rect width="330" height="70" rx="6" fill="#ecfeff" stroke="#a5f3fc"/>
      <text x="165" y="20" class="box-title" text-anchor="middle">CookieConsentHandler</text>
      <text x="165" y="38" class="box-text" text-anchor="middle">Try 8 known CMPs (OneTrust, Cookiebot, etc.)</text>
      <text x="165" y="52" class="box-text" text-anchor="middle">Fallback: heuristic (accept/allow/agree/ok)</text>
      <text x="165" y="66" class="box-text" text-anchor="middle">Best-effort: failures never block loading</text>
    </g>

    <!-- Output data -->
    <g transform="translate(15, 145)">
      <rect width="330" height="45" rx="6" fill="#cffafe" stroke="#67e8f9"/>
      <text x="165" y="18" class="data-label" text-anchor="middle">OUTPUT: CookieConsentResult</text>
      <text x="165" y="35" class="code-text" text-anchor="middle">{ dismissed: true, mode: 'cmp', cmpId: 'onetrust' }</text>
    </g>
  </g>

  <!-- Vertical connector -->
  <g transform="translate(1170, 260)">
    <path d="M0,0 L0,50 L-450,50 L-450,100" stroke="#06b6d4" stroke-width="3" fill="none" marker-end="url(#flowArrow)"/>
    <text x="-225" y="40" class="arrow-label" text-anchor="middle">Page + CookieResult</text>
  </g>

  <!-- ==================== STAGE 3: DATA EXTRACTION ==================== -->
  <g transform="translate(520, 380)">
    <!-- Stage header -->
    <rect width="380" height="40" rx="8" fill="url(#stage3Grad)"/>
    <text x="25" y="27" class="stage-num">4</text>
    <text x="55" y="27" class="stage-title">DATA EXTRACTION</text>

    <!-- Stage content -->
    <rect x="0" y="45" width="380" height="160" rx="8" fill="white" stroke="#e2e8f0" stroke-width="2" filter="url(#shadow)"/>

    <!-- HeadingExtractor Box -->
    <g transform="translate(15, 60)">
      <rect width="350" height="70" rx="6" fill="#fef3c7" stroke="#fcd34d"/>
      <text x="175" y="20" class="box-title" text-anchor="middle">HeadingExtractor</text>
      <text x="175" y="40" class="code-text" text-anchor="middle">page.locator('h1, h2, h3, h4, h5, h6')</text>
      <text x="175" y="56" class="box-text" text-anchor="middle">Extract level, text, index | Normalize whitespace | Skip empty</text>
    </g>

    <!-- Output data -->
    <g transform="translate(15, 145)">
      <rect width="350" height="45" rx="6" fill="#fde68a" stroke="#fbbf24"/>
      <text x="175" y="18" class="data-label" text-anchor="middle">OUTPUT: ExtractionResult</text>
      <text x="175" y="35" class="code-text" text-anchor="middle">{ headings: [{level:1, text:"..."}, ...], totalCount: 5 }</text>
    </g>
  </g>

  <!-- Horizontal connector to AI Processing -->
  <g transform="translate(910, 460)">
    <line x1="0" y1="0" x2="70" y2="0" stroke="#f59e0b" stroke-width="3" marker-end="url(#flowArrow)"/>
    <text x="35" y="-8" class="arrow-label" text-anchor="middle">ExtractionResult</text>
  </g>

  <!-- ==================== STAGE 4: AI PROCESSING ==================== -->
  <g transform="translate(50, 600)">
    <!-- Stage header -->
    <rect width="900" height="40" rx="8" fill="url(#stage4Grad)"/>
    <text x="25" y="27" class="stage-num">5</text>
    <text x="55" y="27" class="stage-title">AI PROCESSING (LangChain + OpenAI)</text>

    <!-- Stage content -->
    <rect x="0" y="45" width="900" height="220" rx="8" fill="white" stroke="#e2e8f0" stroke-width="2" filter="url(#shadow)"/>

    <!-- Step 1: Build Prompt -->
    <g transform="translate(20, 65)">
      <rect width="180" height="90" rx="6" fill="#f5f3ff" stroke="#c4b5fd"/>
      <circle cx="15" cy="15" r="12" fill="#8b5cf6"/>
      <text x="15" y="20" fill="white" font-size="11" font-weight="bold" text-anchor="middle">A</text>
      <text x="100" y="18" class="box-title" text-anchor="middle">Build Prompt</text>
      <text x="90" y="40" class="box-text" text-anchor="middle">System message:</text>
      <text x="90" y="55" class="code-text" text-anchor="middle">"Analyze heading</text>
      <text x="90" y="68" class="code-text" text-anchor="middle">structure..."</text>
      <text x="90" y="83" class="box-text" text-anchor="middle">+ User message</text>
    </g>

    <!-- Arrow -->
    <line x1="210" y1="110" x2="240" y2="110" stroke="#8b5cf6" stroke-width="2" marker-end="url(#dataArrow)"/>

    <!-- Step 2: Call API -->
    <g transform="translate(250, 65)">
      <rect width="180" height="90" rx="6" fill="#fef2f2" stroke="#fecaca"/>
      <circle cx="15" cy="15" r="12" fill="#ef4444"/>
      <text x="15" y="20" fill="white" font-size="11" font-weight="bold" text-anchor="middle">B</text>
      <text x="100" y="18" class="box-title" text-anchor="middle">OpenAI API Call</text>
      <text x="90" y="40" class="code-text" text-anchor="middle">ChatOpenAI.invoke()</text>
      <text x="90" y="58" class="box-text" text-anchor="middle">Model: gpt-4o-mini</text>
      <text x="90" y="73" class="box-text" text-anchor="middle">maxTokens: 1000</text>
      <text x="90" y="88" class="box-text" text-anchor="middle">temperature: 0.3</text>
    </g>

    <!-- Arrow -->
    <line x1="440" y1="110" x2="470" y2="110" stroke="#8b5cf6" stroke-width="2" marker-end="url(#dataArrow)"/>

    <!-- Step 3: Parse Response -->
    <g transform="translate(480, 65)">
      <rect width="160" height="90" rx="6" fill="#f5f3ff" stroke="#c4b5fd"/>
      <circle cx="15" cy="15" r="12" fill="#8b5cf6"/>
      <text x="15" y="20" fill="white" font-size="11" font-weight="bold" text-anchor="middle">C</text>
      <text x="90" y="18" class="box-title" text-anchor="middle">Parse Response</text>
      <text x="80" y="40" class="box-text" text-anchor="middle">Parse JSON</text>
      <text x="80" y="58" class="box-text" text-anchor="middle">Validate with Zod</text>
      <text x="80" y="73" class="code-text" text-anchor="middle">schema.parse()</text>
      <text x="80" y="88" class="box-text" text-anchor="middle">Handle fallback</text>
    </g>

    <!-- Arrow -->
    <line x1="650" y1="110" x2="680" y2="110" stroke="#8b5cf6" stroke-width="2" marker-end="url(#dataArrow)"/>

    <!-- Step 4: Result -->
    <g transform="translate(690, 65)">
      <rect width="190" height="90" rx="6" fill="#d1fae5" stroke="#6ee7b7"/>
      <circle cx="15" cy="15" r="12" fill="#10b981"/>
      <text x="15" y="20" fill="white" font-size="11" font-weight="bold" text-anchor="middle">D</text>
      <text x="105" y="18" class="box-title" text-anchor="middle">Result</text>
      <text x="105" y="40" class="box-text" text-anchor="middle">summary</text>
      <text x="105" y="55" class="box-text" text-anchor="middle">categories[]</text>
      <text x="105" y="70" class="box-text" text-anchor="middle">insights[]</text>
    </g>

    <!-- Output data -->
    <g transform="translate(20, 170)">
      <rect width="860" height="80" rx="6" fill="#ede9fe" stroke="#c4b5fd"/>
      <text x="430" y="20" class="data-label" text-anchor="middle">OUTPUT: ProcessingResult</text>
      <text x="430" y="40" class="code-text" text-anchor="middle">{</text>
      <text x="430" y="55" class="code-text" text-anchor="middle">summary: "Well-structured documentation page with clear hierarchy...",</text>
      <text x="430" y="70" class="code-text" text-anchor="middle">categories: ["Documentation", "API Reference"], insights: ["Clear navigation", "Good SEO"]</text>
    </g>
  </g>

  <!-- Vertical connector to Stage 5 -->
  <g transform="translate(500, 865)">
    <line x1="0" y1="0" x2="0" y2="50" stroke="#8b5cf6" stroke-width="3" marker-end="url(#flowArrow)"/>
    <text x="60" y="30" class="arrow-label" text-anchor="middle">AgentResult</text>
  </g>

  <!-- ==================== STAGE 5: OUTPUT FORMATTING ==================== -->
  <g transform="translate(50, 930)">
    <!-- Stage header -->
    <rect width="900" height="40" rx="8" fill="url(#stage5Grad)"/>
    <text x="25" y="27" class="stage-num">6</text>
    <text x="55" y="27" class="stage-title">OUTPUT FORMATTING &amp; DISPLAY</text>

    <!-- Stage content -->
    <rect x="0" y="45" width="900" height="120" rx="8" fill="white" stroke="#e2e8f0" stroke-width="2" filter="url(#shadow)"/>

    <!-- ResultFormatter Box -->
    <g transform="translate(20, 60)">
      <rect width="200" height="80" rx="6" fill="#fdf2f8" stroke="#fbcfe8"/>
      <text x="100" y="20" class="box-title" text-anchor="middle">ResultFormatter</text>
      <text x="100" y="40" class="box-text" text-anchor="middle">Unicode box drawing</text>
      <text x="100" y="55" class="box-text" text-anchor="middle">Text alignment</text>
      <text x="100" y="70" class="box-text" text-anchor="middle">Truncation &amp; padding</text>
    </g>

    <!-- Arrow -->
    <line x1="230" y1="100" x2="260" y2="100" stroke="#ec4899" stroke-width="2" marker-end="url(#dataArrow)"/>

    <!-- Console Output Preview -->
    <g transform="translate(270, 55)">
      <rect width="610" height="100" rx="6" fill="#1e293b"/>
      <text x="305" y="18" fill="#94a3b8" font-size="10" text-anchor="middle">CONSOLE OUTPUT</text>

      <!-- Box drawing -->
      <text x="20" y="35" fill="#f1f5f9" font-family="Consolas" font-size="9">+------------------------------------------------------------------+</text>
      <text x="20" y="48" fill="#f1f5f9" font-family="Consolas" font-size="9">|                    BROWSER AGENT RESULTS                         |</text>
      <text x="20" y="61" fill="#10b981" font-family="Consolas" font-size="9">| URL: https://example.com              | Status: SUCCESS          |</text>
      <text x="20" y="74" fill="#f1f5f9" font-family="Consolas" font-size="9">| Load Time: 2.34s | Cookie: Dismissed (OneTrust)                  |</text>
      <text x="20" y="87" fill="#8b5cf6" font-family="Consolas" font-size="9">| AI INSIGHTS: Well-structured page with clear navigation...       |</text>
    </g>
  </g>

  <!-- ==================== SIDE PANEL: ERROR HANDLING ==================== -->
  <g transform="translate(990, 380)">
    <rect width="360" height="200" rx="10" fill="white" stroke="#fecaca" stroke-width="2" filter="url(#shadow)"/>
    <rect width="360" height="35" rx="10" fill="#ef4444"/>
    <rect x="0" y="25" width="360" height="10" fill="#ef4444"/>
    <text x="180" y="25" fill="white" font-size="13" font-weight="bold" text-anchor="middle">ERROR HANDLING FLOW</text>

    <!-- Error stages -->
    <g transform="translate(15, 50)">
      <rect width="75" height="45" rx="5" fill="#fef2f2" stroke="#fecaca"/>
      <text x="37" y="18" class="box-title" text-anchor="middle" fill="#b91c1c">LOAD</text>
      <text x="37" y="32" class="box-text" text-anchor="middle">Timeout</text>
      <text x="37" y="44" class="box-text" text-anchor="middle">Network</text>
    </g>

    <g transform="translate(100, 50)">
      <rect width="75" height="45" rx="5" fill="#ecfeff" stroke="#a5f3fc"/>
      <text x="37" y="18" class="box-title" text-anchor="middle" fill="#0891b2">COOKIE</text>
      <text x="37" y="32" class="box-text" text-anchor="middle">Best-effort</text>
      <text x="37" y="44" class="box-text" text-anchor="middle">Never fails</text>
    </g>

    <g transform="translate(185, 50)">
      <rect width="75" height="45" rx="5" fill="#fef2f2" stroke="#fecaca"/>
      <text x="37" y="18" class="box-title" text-anchor="middle" fill="#b91c1c">EXTRACT</text>
      <text x="37" y="32" class="box-text" text-anchor="middle">No elems</text>
      <text x="37" y="44" class="box-text" text-anchor="middle">Query fail</text>
    </g>

    <g transform="translate(270, 50)">
      <rect width="75" height="45" rx="5" fill="#fef2f2" stroke="#fecaca"/>
      <text x="37" y="18" class="box-title" text-anchor="middle" fill="#b91c1c">PROCESS</text>
      <text x="37" y="32" class="box-text" text-anchor="middle">API error</text>
      <text x="37" y="44" class="box-text" text-anchor="middle">Parse fail</text>
    </g>

    <!-- Recovery strategies -->
    <g transform="translate(15, 108)">
      <rect width="330" height="80" rx="6" fill="#f0fdf4" stroke="#86efac"/>
      <text x="165" y="18" class="box-title" text-anchor="middle" fill="#166534">RECOVERY STRATEGIES</text>

      <text x="10" y="38" class="box-text" fill="#166534">Load:</text>
      <text x="45" y="38" class="code-text">Return error, continue batch</text>

      <text x="10" y="53" class="box-text" fill="#166534">Cookie:</text>
      <text x="55" y="53" class="code-text">Log warning, continue (never blocks)</text>

      <text x="10" y="68" class="box-text" fill="#166534">Extract/Process:</text>
      <text x="100" y="68" class="code-text">Graceful fallback</text>
    </g>
  </g>

  <!-- ==================== LEGEND ==================== -->
  <g transform="translate(990, 600)">
    <rect width="360" height="220" rx="8" fill="white" stroke="#e2e8f0" stroke-width="2"/>
    <text x="180" y="22" class="box-title" text-anchor="middle">LEGEND</text>

    <g transform="translate(20, 35)">
      <rect width="80" height="20" rx="4" fill="url(#stage1Grad)"/>
      <text x="100" y="15" class="box-text">CLI/Input</text>
    </g>

    <g transform="translate(180, 35)">
      <rect width="80" height="20" rx="4" fill="url(#stage2Grad)"/>
      <text x="100" y="15" class="box-text">Browser</text>
    </g>

    <g transform="translate(20, 65)">
      <rect width="80" height="20" rx="4" fill="url(#stage2bGrad)"/>
      <text x="100" y="15" class="box-text">Cookie Consent</text>
    </g>

    <g transform="translate(180, 65)">
      <rect width="80" height="20" rx="4" fill="url(#stage3Grad)"/>
      <text x="100" y="15" class="box-text">Extraction</text>
    </g>

    <g transform="translate(20, 95)">
      <rect width="80" height="20" rx="4" fill="url(#stage4Grad)"/>
      <text x="100" y="15" class="box-text">AI Processing</text>
    </g>

    <g transform="translate(180, 95)">
      <rect width="80" height="20" rx="4" fill="url(#stage5Grad)"/>
      <text x="100" y="15" class="box-text">Output</text>
    </g>

    <g transform="translate(20, 125)">
      <line x1="0" y1="10" x2="40" y2="10" stroke="#3b82f6" stroke-width="3" marker-end="url(#flowArrow)"/>
      <text x="60" y="15" class="box-text">Data flow</text>
    </g>

    <!-- Supported CMPs -->
    <text x="180" y="143" class="box-title" text-anchor="middle">Supported CMPs</text>
    <text x="180" y="160" class="code-text" text-anchor="middle">OneTrust | Cookiebot | Usercentrics</text>
    <text x="180" y="175" class="code-text" text-anchor="middle">TrustArc | Quantcast | Didomi</text>
    <text x="180" y="190" class="code-text" text-anchor="middle">Osano | ConsentManager | Heuristic</text>
  </g>
</svg>
