<svg xmlns="http://www.w3.org/2000/svg" viewBox="0 0 1500 1400">
  <defs>
    <style>
      .title { font: bold 26px 'Segoe UI', Arial, sans-serif; fill: #1e293b; }
      .subtitle { font: 14px 'Segoe UI', Arial, sans-serif; fill: #64748b; }
      .stage-title { font: bold 14px 'Segoe UI', Arial, sans-serif; fill: white; }
      .stage-num { font: bold 20px 'Segoe UI', Arial, sans-serif; fill: white; }
      .box-title { font: bold 12px 'Segoe UI', Arial, sans-serif; fill: #1e293b; }
      .box-text { font: 11px 'Segoe UI', Arial, sans-serif; fill: #475569; }
      .code-text { font: 10px 'Consolas', monospace; fill: #6366f1; }
      .data-label { font: bold 10px 'Segoe UI', Arial, sans-serif; fill: #059669; }
      .arrow-label { font: 10px 'Segoe UI', Arial, sans-serif; fill: #64748b; }
    </style>

    <linearGradient id="stage1Grad" x1="0%" y1="0%" x2="100%" y2="0%">
      <stop offset="0%" style="stop-color:#3b82f6"/>
      <stop offset="100%" style="stop-color:#1d4ed8"/>
    </linearGradient>

    <linearGradient id="stage2Grad" x1="0%" y1="0%" x2="100%" y2="0%">
      <stop offset="0%" style="stop-color:#10b981"/>
      <stop offset="100%" style="stop-color:#059669"/>
    </linearGradient>

    <linearGradient id="stage3Grad" x1="0%" y1="0%" x2="100%" y2="0%">
      <stop offset="0%" style="stop-color:#f59e0b"/>
      <stop offset="100%" style="stop-color:#d97706"/>
    </linearGradient>

    <linearGradient id="stage4Grad" x1="0%" y1="0%" x2="100%" y2="0%">
      <stop offset="0%" style="stop-color:#8b5cf6"/>
      <stop offset="100%" style="stop-color:#7c3aed"/>
    </linearGradient>

    <linearGradient id="stage5Grad" x1="0%" y1="0%" x2="100%" y2="0%">
      <stop offset="0%" style="stop-color:#06b6d4"/>
      <stop offset="100%" style="stop-color:#0891b2"/>
    </linearGradient>

    <linearGradient id="stage6Grad" x1="0%" y1="0%" x2="100%" y2="0%">
      <stop offset="0%" style="stop-color:#f97316"/>
      <stop offset="100%" style="stop-color:#ea580c"/>
    </linearGradient>

    <linearGradient id="stage7Grad" x1="0%" y1="0%" x2="100%" y2="0%">
      <stop offset="0%" style="stop-color:#a855f7"/>
      <stop offset="100%" style="stop-color:#9333ea"/>
    </linearGradient>

    <linearGradient id="stage8Grad" x1="0%" y1="0%" x2="100%" y2="0%">
      <stop offset="0%" style="stop-color:#ec4899"/>
      <stop offset="100%" style="stop-color:#db2777"/>
    </linearGradient>

    <filter id="shadow" x="-10%" y="-10%" width="120%" height="130%">
      <feDropShadow dx="2" dy="3" stdDeviation="3" flood-opacity="0.12"/>
    </filter>

    <marker id="flowArrow" markerWidth="12" markerHeight="8" refX="11" refY="4" orient="auto">
      <path d="M0,0 L12,4 L0,8 L3,4 Z" fill="#3b82f6"/>
    </marker>

    <marker id="dataArrow" markerWidth="10" markerHeight="6" refX="9" refY="3" orient="auto">
      <path d="M0,0 L10,3 L0,6 Z" fill="#10b981"/>
    </marker>

    <marker id="loopArrow" markerWidth="10" markerHeight="6" refX="9" refY="3" orient="auto">
      <path d="M0,0 L10,3 L0,6 Z" fill="#8b5cf6"/>
    </marker>
  </defs>

  <!-- Background -->
  <rect width="1500" height="1400" fill="#f8fafc"/>

  <!-- Header -->
  <rect x="0" y="0" width="1500" height="70" fill="#1e293b"/>
  <text x="750" y="38" class="title" text-anchor="middle" fill="white">CRO Browser Agent - Data Flow Pipeline</text>
  <text x="750" y="58" class="subtitle" text-anchor="middle" fill="#94a3b8">Complete CRO Analysis Flow: observe → reason → act</text>

  <!-- ==================== STAGE 1: CLI INPUT ==================== -->
  <g transform="translate(50, 90)">
    <rect width="320" height="40" rx="8" fill="url(#stage1Grad)"/>
    <text x="25" y="27" class="stage-num">1</text>
    <text x="55" y="27" class="stage-title">CLI INPUT</text>

    <rect x="0" y="45" width="320" height="130" rx="8" fill="white" stroke="#e2e8f0" stroke-width="2" filter="url(#shadow)"/>

    <g transform="translate(15, 60)">
      <rect width="290" height="50" rx="6" fill="#eff6ff" stroke="#bfdbfe"/>
      <text x="145" y="15" class="box-title" text-anchor="middle">CLI Entry (cli.ts)</text>
      <text x="145" y="30" class="code-text" text-anchor="middle" font-size="8">npm run start -- https://www.peregrineclothing.co.uk/</text>
      <text x="145" y="42" class="code-text" text-anchor="middle" font-size="8">collections/polo-shirts/products/lynton-polo-shirt</text>
    </g>

    <g transform="translate(15, 120)">
      <rect width="290" height="40" rx="6" fill="#fef3c7" stroke="#fde68a"/>
      <text x="145" y="15" class="data-label" text-anchor="middle">INPUT</text>
      <text x="145" y="32" class="code-text" text-anchor="middle">URL + CROAgentOptions</text>
    </g>
  </g>

  <!-- Arrow 1→2 -->
  <g transform="translate(380, 155)">
    <line x1="0" y1="0" x2="50" y2="0" stroke="#3b82f6" stroke-width="3" marker-end="url(#flowArrow)"/>
  </g>

  <!-- ==================== STAGE 2: BROWSER LOADING ==================== -->
  <g transform="translate(440, 90)">
    <rect width="320" height="40" rx="8" fill="url(#stage2Grad)"/>
    <text x="25" y="27" class="stage-num">2</text>
    <text x="55" y="27" class="stage-title">PAGE LOADING</text>

    <rect x="0" y="45" width="320" height="130" rx="8" fill="white" stroke="#e2e8f0" stroke-width="2" filter="url(#shadow)"/>

    <g transform="translate(15, 60)">
      <rect width="140" height="50" rx="6" fill="#ecfdf5" stroke="#a7f3d0"/>
      <text x="70" y="18" class="box-title" text-anchor="middle">BrowserManager</text>
      <text x="70" y="35" class="box-text" text-anchor="middle">Launch Chromium</text>
      <text x="70" y="48" class="box-text" text-anchor="middle">New page</text>
    </g>

    <g transform="translate(165, 60)">
      <rect width="140" height="50" rx="6" fill="#ecfdf5" stroke="#a7f3d0"/>
      <text x="70" y="18" class="box-title" text-anchor="middle">PageLoader</text>
      <text x="70" y="35" class="box-text" text-anchor="middle">Navigate URL</text>
      <text x="70" y="48" class="box-text" text-anchor="middle">Dismiss cookies</text>
    </g>

    <g transform="translate(15, 120)">
      <rect width="290" height="40" rx="6" fill="#d1fae5" stroke="#6ee7b7"/>
      <text x="145" y="15" class="data-label" text-anchor="middle">OUTPUT: PageLoadResult</text>
      <text x="145" y="32" class="code-text" text-anchor="middle">{ success, url, title, loadTimeMs }</text>
    </g>
  </g>

  <!-- Arrow 2→3 -->
  <g transform="translate(770, 155)">
    <line x1="0" y1="0" x2="50" y2="0" stroke="#10b981" stroke-width="3" marker-end="url(#flowArrow)"/>
  </g>

  <!-- ==================== STAGE 3: DOM EXTRACTION ==================== -->
  <g transform="translate(830, 90)">
    <rect width="320" height="40" rx="8" fill="url(#stage3Grad)"/>
    <text x="25" y="27" class="stage-num">3</text>
    <text x="55" y="27" class="stage-title">DOM EXTRACTION</text>

    <rect x="0" y="45" width="320" height="130" rx="8" fill="white" stroke="#e2e8f0" stroke-width="2" filter="url(#shadow)"/>

    <g transform="translate(15, 60)">
      <rect width="290" height="50" rx="6" fill="#fef3c7" stroke="#fcd34d"/>
      <text x="145" y="18" class="box-title" text-anchor="middle">DOMExtractor</text>
      <text x="145" y="35" class="box-text" text-anchor="middle">Inject buildCroDomTree.js</text>
      <text x="145" y="48" class="box-text" text-anchor="middle">Classify: cta|form|trust|value_prop|nav</text>
    </g>

    <g transform="translate(15, 120)">
      <rect width="290" height="40" rx="6" fill="#fde68a" stroke="#fbbf24"/>
      <text x="145" y="15" class="data-label" text-anchor="middle">OUTPUT: DOMTree</text>
      <text x="145" y="32" class="code-text" text-anchor="middle">{ nodes[], metadata }</text>
    </g>
  </g>

  <!-- Arrow 3→4 -->
  <g transform="translate(1160, 155)">
    <line x1="0" y1="0" x2="50" y2="0" stroke="#f59e0b" stroke-width="3" marker-end="url(#flowArrow)"/>
  </g>

  <!-- ==================== STAGE 4: INITIALIZE AGENT ==================== -->
  <g transform="translate(1220, 90)">
    <rect width="230" height="40" rx="8" fill="url(#stage4Grad)"/>
    <text x="25" y="27" class="stage-num">4</text>
    <text x="55" y="27" class="stage-title">INIT AGENT</text>

    <rect x="0" y="45" width="230" height="130" rx="8" fill="white" stroke="#e2e8f0" stroke-width="2" filter="url(#shadow)"/>

    <g transform="translate(15, 60)">
      <rect width="200" height="100" rx="6" fill="#f5f3ff" stroke="#c4b5fd"/>
      <text x="100" y="18" class="box-title" text-anchor="middle">CROAgent Init</text>
      <text x="100" y="35" class="box-text" text-anchor="middle">Create ToolRegistry</text>
      <text x="100" y="50" class="box-text" text-anchor="middle">Create StateManager</text>
      <text x="100" y="65" class="box-text" text-anchor="middle">Build initial prompt</text>
      <text x="100" y="80" class="box-text" text-anchor="middle">Initialize memory</text>
      <text x="100" y="95" class="code-text" text-anchor="middle">maxSteps: 10</text>
    </g>
  </g>

  <!-- Vertical connector to Agent Loop -->
  <g transform="translate(1335, 265)">
    <path d="M0,0 L0,30 L-685,30 L-685,60" stroke="#8b5cf6" stroke-width="3" fill="none" marker-end="url(#flowArrow)"/>
    <text x="-340" y="22" class="arrow-label" text-anchor="middle">PageState + Tools</text>
  </g>

  <!-- ==================== STAGE 5: AGENT LOOP (Large section) ==================== -->
  <g transform="translate(50, 350)">
    <rect width="1100" height="40" rx="8" fill="url(#stage4Grad)"/>
    <text x="25" y="27" class="stage-num">5</text>
    <text x="55" y="27" class="stage-title">AGENT LOOP (observe → reason → act) - Max 10 Steps</text>

    <rect x="0" y="45" width="1100" height="280" rx="8" fill="white" stroke="#e2e8f0" stroke-width="2" filter="url(#shadow)"/>

    <!-- OBSERVE Phase -->
    <g transform="translate(20, 60)">
      <rect width="300" height="200" rx="6" fill="#eff6ff" stroke="#bfdbfe" stroke-width="2"/>
      <rect width="300" height="30" rx="6" fill="#3b82f6"/>
      <rect x="0" y="20" width="300" height="10" fill="#3b82f6"/>
      <text x="150" y="22" fill="white" font-size="12" font-weight="bold" text-anchor="middle">OBSERVE</text>

      <g transform="translate(15, 45)">
        <rect width="270" height="140" rx="4" fill="#f8fafc" stroke="#e2e8f0"/>
        <text x="135" y="18" class="box-title" text-anchor="middle">Build Context</text>
        <text x="135" y="38" class="box-text" text-anchor="middle">Re-extract DOM tree</text>
        <text x="135" y="55" class="box-text" text-anchor="middle">Serialize for LLM</text>
        <text x="135" y="72" class="box-text" text-anchor="middle">Check memory/history</text>
        <text x="135" y="89" class="box-text" text-anchor="middle">Apply token budget</text>
        <text x="135" y="110" class="data-label" text-anchor="middle">→ PageState</text>
        <text x="135" y="125" class="code-text" text-anchor="middle">{url, title, domTree, viewport}</text>
      </g>
    </g>

    <!-- Arrow Observe→Reason -->
    <g transform="translate(330, 160)">
      <line x1="0" y1="0" x2="50" y2="0" stroke="#8b5cf6" stroke-width="3" marker-end="url(#loopArrow)"/>
    </g>

    <!-- REASON Phase -->
    <g transform="translate(390, 60)">
      <rect width="340" height="200" rx="6" fill="#f5f3ff" stroke="#c4b5fd" stroke-width="2"/>
      <rect width="340" height="30" rx="6" fill="#8b5cf6"/>
      <rect x="0" y="20" width="340" height="10" fill="#8b5cf6"/>
      <text x="170" y="22" fill="white" font-size="12" font-weight="bold" text-anchor="middle">REASON</text>

      <g transform="translate(15, 45)">
        <rect width="150" height="140" rx="4" fill="#f8fafc" stroke="#e2e8f0"/>
        <text x="75" y="18" class="box-title" text-anchor="middle">PromptBuilder</text>
        <text x="75" y="38" class="box-text" text-anchor="middle">System prompt</text>
        <text x="75" y="55" class="box-text" text-anchor="middle">6 sections</text>
        <text x="75" y="72" class="box-text" text-anchor="middle">Tool definitions</text>
        <text x="75" y="89" class="box-text" text-anchor="middle">CRO criteria</text>
      </g>

      <g transform="translate(175, 45)">
        <rect width="150" height="140" rx="4" fill="#fef2f2" stroke="#fecaca"/>
        <text x="75" y="18" class="box-title" text-anchor="middle">GPT-4o Call</text>
        <text x="75" y="38" class="box-text" text-anchor="middle">LangChain</text>
        <text x="75" y="55" class="code-text" text-anchor="middle">ChatOpenAI</text>
        <text x="75" y="72" class="box-text" text-anchor="middle">Select tool</text>
        <text x="75" y="89" class="box-text" text-anchor="middle">Extract params</text>
        <text x="75" y="110" class="data-label" text-anchor="middle">→ CROAgentOutput</text>
        <text x="75" y="125" class="code-text" text-anchor="middle">{action, params}</text>
      </g>
    </g>

    <!-- Arrow Reason→Act -->
    <g transform="translate(740, 160)">
      <line x1="0" y1="0" x2="50" y2="0" stroke="#8b5cf6" stroke-width="3" marker-end="url(#loopArrow)"/>
    </g>

    <!-- ACT Phase -->
    <g transform="translate(800, 60)">
      <rect width="280" height="200" rx="6" fill="#ecfeff" stroke="#67e8f9" stroke-width="2"/>
      <rect width="280" height="30" rx="6" fill="#06b6d4"/>
      <rect x="0" y="20" width="280" height="10" fill="#06b6d4"/>
      <text x="140" y="22" fill="white" font-size="12" font-weight="bold" text-anchor="middle">ACT</text>

      <g transform="translate(15, 45)">
        <rect width="250" height="140" rx="4" fill="#f8fafc" stroke="#e2e8f0"/>
        <text x="125" y="18" class="box-title" text-anchor="middle">ToolExecutor</text>
        <text x="125" y="38" class="box-text" text-anchor="middle">Validate params (Zod)</text>
        <text x="125" y="55" class="box-text" text-anchor="middle">Execute tool</text>
        <text x="125" y="72" class="box-text" text-anchor="middle">Collect insights</text>
        <text x="125" y="89" class="box-text" text-anchor="middle">Update state</text>
        <text x="125" y="110" class="data-label" text-anchor="middle">→ ToolResult</text>
        <text x="125" y="125" class="code-text" text-anchor="middle">{success, insights[]}</text>
      </g>
    </g>

    <!-- Loop back arrow -->
    <g transform="translate(800, 275)">
      <path d="M140,0 L140,30 L-680,30 L-680,-15" stroke="#8b5cf6" stroke-width="2" stroke-dasharray="6,4" fill="none" marker-end="url(#loopArrow)"/>
      <text x="-270" y="22" class="arrow-label" text-anchor="middle">Loop until done | max_steps | 3 failures</text>
    </g>
  </g>

  <!-- 11 Tools Box -->
  <g transform="translate(1170, 350)">
    <rect width="280" height="280" rx="8" fill="white" stroke="#67e8f9" stroke-width="2" filter="url(#shadow)"/>
    <rect width="280" height="35" rx="8" fill="#06b6d4"/>
    <rect x="0" y="25" width="280" height="10" fill="#06b6d4"/>
    <text x="140" y="25" fill="white" font-size="12" font-weight="bold" text-anchor="middle">11 CRO TOOLS</text>

    <g transform="translate(15, 50)">
      <text x="0" y="12" class="box-title" fill="#0891b2">Analysis (6):</text>
      <text x="0" y="28" class="code-text">analyze_ctas</text>
      <text x="0" y="42" class="code-text">analyze_forms</text>
      <text x="0" y="56" class="code-text">detect_trust_signals</text>
      <text x="0" y="70" class="code-text">assess_value_prop</text>
      <text x="0" y="84" class="code-text">check_navigation</text>
      <text x="0" y="98" class="code-text">find_friction</text>

      <text x="140" y="12" class="box-title" fill="#0891b2">Navigation (3):</text>
      <text x="140" y="28" class="code-text">scroll_page</text>
      <text x="140" y="42" class="code-text">click</text>
      <text x="140" y="56" class="code-text">go_to_url</text>

      <text x="140" y="84" class="box-title" fill="#0891b2">Control (2):</text>
      <text x="140" y="100" class="code-text">record_insight, done</text>
    </g>

    <g transform="translate(15, 170)">
      <rect width="250" height="95" rx="6" fill="#f0fdfa" stroke="#5eead4"/>
      <text x="125" y="18" class="box-title" text-anchor="middle" fill="#0d9488">Tool Result Format</text>
      <text x="125" y="38" class="code-text" text-anchor="middle">{</text>
      <text x="125" y="52" class="code-text" text-anchor="middle">success: boolean,</text>
      <text x="125" y="66" class="code-text" text-anchor="middle">insights: CROInsight[],</text>
      <text x="125" y="80" class="code-text" text-anchor="middle">error?: string</text>
    </g>
  </g>

  <!-- Arrow 5→6 -->
  <g transform="translate(600, 680)">
    <line x1="0" y1="0" x2="0" y2="40" stroke="#8b5cf6" stroke-width="3" marker-end="url(#flowArrow)"/>
    <text x="60" y="25" class="arrow-label" text-anchor="middle">CROInsight[]</text>
  </g>

  <!-- ==================== STAGE 6: HEURISTICS ==================== -->
  <g transform="translate(50, 740)">
    <rect width="500" height="40" rx="8" fill="url(#stage6Grad)"/>
    <text x="25" y="27" class="stage-num">6</text>
    <text x="55" y="27" class="stage-title">HEURISTIC ENGINE (10 Rules)</text>

    <rect x="0" y="45" width="500" height="170" rx="8" fill="white" stroke="#e2e8f0" stroke-width="2" filter="url(#shadow)"/>

    <g transform="translate(15, 60)">
      <rect width="230" height="140" rx="6" fill="#fff7ed" stroke="#fdba74"/>
      <text x="115" y="18" class="box-title" text-anchor="middle">HeuristicEngine</text>
      <text x="115" y="38" class="box-text" text-anchor="middle">Run 10 rules (H001-H010)</text>
      <text x="10" y="58" class="code-text">CTA: vague_cta, no_cta_fold</text>
      <text x="10" y="72" class="code-text">Form: field_overload, no_label</text>
      <text x="10" y="86" class="code-text">Trust: no_trust, no_security</text>
      <text x="10" y="100" class="code-text">Value: unclear, headline_long</text>
      <text x="10" y="114" class="code-text">Nav: no_breadcrumbs, no_search</text>
      <text x="115" y="132" class="data-label" text-anchor="middle">→ HeuristicInsight[]</text>
    </g>

    <g transform="translate(255, 60)">
      <rect width="230" height="140" rx="6" fill="#fef3c7" stroke="#fcd34d"/>
      <text x="115" y="18" class="box-title" text-anchor="middle">BusinessTypeDetector</text>
      <text x="115" y="38" class="box-text" text-anchor="middle">Analyze URL patterns</text>
      <text x="115" y="55" class="box-text" text-anchor="middle">Element presence</text>
      <text x="115" y="72" class="box-text" text-anchor="middle">Keywords</text>
      <text x="10" y="92" class="code-text">Types: ecommerce, saas</text>
      <text x="10" y="106" class="code-text">banking, insurance, travel</text>
      <text x="10" y="120" class="code-text">media, other</text>
      <text x="115" y="138" class="data-label" text-anchor="middle">→ BusinessTypeResult</text>
    </g>
  </g>

  <!-- Arrow 6→7 -->
  <g transform="translate(560, 825)">
    <line x1="0" y1="0" x2="50" y2="0" stroke="#f97316" stroke-width="3" marker-end="url(#flowArrow)"/>
  </g>

  <!-- ==================== STAGE 7: POST-PROCESSING ==================== -->
  <g transform="translate(620, 740)">
    <rect width="400" height="40" rx="8" fill="url(#stage7Grad)"/>
    <text x="25" y="27" class="stage-num">7</text>
    <text x="55" y="27" class="stage-title">POST-PROCESSING</text>

    <rect x="0" y="45" width="400" height="170" rx="8" fill="white" stroke="#e2e8f0" stroke-width="2" filter="url(#shadow)"/>

    <g transform="translate(15, 60)">
      <rect width="180" height="60" rx="6" fill="#faf5ff" stroke="#e9d5ff"/>
      <text x="90" y="18" class="box-title" text-anchor="middle">InsightDeduplicator</text>
      <text x="90" y="35" class="box-text" text-anchor="middle">Remove duplicates</text>
      <text x="90" y="50" class="box-text" text-anchor="middle">Same type + element</text>
    </g>

    <g transform="translate(205, 60)">
      <rect width="180" height="60" rx="6" fill="#faf5ff" stroke="#e9d5ff"/>
      <text x="90" y="18" class="box-title" text-anchor="middle">InsightPrioritizer</text>
      <text x="90" y="35" class="box-text" text-anchor="middle">Sort by severity</text>
      <text x="90" y="50" class="box-text" text-anchor="middle">critical→low</text>
    </g>

    <g transform="translate(15, 130)">
      <rect width="180" height="70" rx="6" fill="#fce7f3" stroke="#f9a8d4"/>
      <text x="90" y="18" class="box-title" text-anchor="middle">HypothesisGenerator</text>
      <text x="90" y="35" class="box-text" text-anchor="middle">Generate A/B tests</text>
      <text x="90" y="50" class="code-text" text-anchor="middle">"If {rec}, then {metric}</text>
      <text x="90" y="65" class="code-text" text-anchor="middle">will improve..."</text>
    </g>

    <g transform="translate(205, 130)">
      <rect width="180" height="70" rx="6" fill="#d1fae5" stroke="#6ee7b7"/>
      <text x="90" y="18" class="box-title" text-anchor="middle">ScoreCalculator</text>
      <text x="90" y="35" class="box-text" text-anchor="middle">Overall CRO score</text>
      <text x="90" y="50" class="box-text" text-anchor="middle">Category scores</text>
      <text x="90" y="65" class="code-text" text-anchor="middle">0-100 scale</text>
    </g>
  </g>

  <!-- Arrow 7→8 -->
  <g transform="translate(1030, 825)">
    <line x1="0" y1="0" x2="50" y2="0" stroke="#a855f7" stroke-width="3" marker-end="url(#flowArrow)"/>
  </g>

  <!-- ==================== STAGE 8: OUTPUT ==================== -->
  <g transform="translate(1090, 740)">
    <rect width="360" height="40" rx="8" fill="url(#stage8Grad)"/>
    <text x="25" y="27" class="stage-num">8</text>
    <text x="55" y="27" class="stage-title">OUTPUT GENERATION</text>

    <rect x="0" y="45" width="360" height="170" rx="8" fill="white" stroke="#e2e8f0" stroke-width="2" filter="url(#shadow)"/>

    <g transform="translate(15, 60)">
      <rect width="160" height="55" rx="6" fill="#fdf2f8" stroke="#fbcfe8"/>
      <text x="80" y="18" class="box-title" text-anchor="middle">MarkdownReporter</text>
      <text x="80" y="35" class="box-text" text-anchor="middle">6 sections</text>
      <text x="80" y="50" class="code-text" text-anchor="middle">report.md</text>
    </g>

    <g transform="translate(185, 60)">
      <rect width="160" height="55" rx="6" fill="#fdf2f8" stroke="#fbcfe8"/>
      <text x="80" y="18" class="box-title" text-anchor="middle">JSONExporter</text>
      <text x="80" y="35" class="box-text" text-anchor="middle">Complete data</text>
      <text x="80" y="50" class="code-text" text-anchor="middle">analysis.json</text>
    </g>

    <g transform="translate(15, 125)">
      <rect width="330" height="75" rx="6" fill="#1e293b"/>
      <text x="165" y="16" fill="#94a3b8" font-size="10" text-anchor="middle">CONSOLE OUTPUT</text>
      <text x="10" y="32" fill="#10b981" font-family="Consolas" font-size="8">CRO Analysis Complete:</text>
      <text x="10" y="44" fill="#10b981" font-family="Consolas" font-size="7">https://www.peregrineclothing.co.uk/collections/polo-shirts/products/lynton-polo-shirt?colour=Navy</text>
      <text x="10" y="56" fill="#f1f5f9" font-family="Consolas" font-size="8">Score: 72/100 | Issues: 5 critical, 8 high</text>
      <text x="10" y="68" fill="#8b5cf6" font-family="Consolas" font-size="8">Hypotheses: 3 A/B tests generated</text>
    </g>
  </g>

  <!-- ==================== FINAL OUTPUT DATA ==================== -->
  <g transform="translate(50, 950)">
    <rect width="1400" height="130" rx="8" fill="white" stroke="#e2e8f0" stroke-width="2" filter="url(#shadow)"/>
    <rect width="1400" height="35" rx="8" fill="#1e293b"/>
    <rect x="0" y="25" width="1400" height="10" fill="#1e293b"/>
    <text x="700" y="25" fill="white" font-size="13" font-weight="bold" text-anchor="middle">FINAL OUTPUT: CROAnalysisResult</text>

    <g transform="translate(20, 50)">
      <text x="0" y="15" class="code-text">{</text>
      <text x="20" y="35" class="code-text">url: string,</text>
      <text x="20" y="50" class="code-text">success: boolean,</text>
      <text x="20" y="65" class="code-text">insights: CROInsight[],</text>
      <text x="20" y="80" class="code-text">heuristicInsights: CROInsight[],</text>

      <text x="280" y="35" class="code-text">businessType: BusinessTypeResult,</text>
      <text x="280" y="50" class="code-text">hypotheses: Hypothesis[],</text>
      <text x="280" y="65" class="code-text">scores: CROScores,</text>
      <text x="280" y="80" class="code-text">stepsExecuted: number,</text>

      <text x="580" y="35" class="code-text">totalTimeMs: number,</text>
      <text x="580" y="50" class="code-text">terminationReason: 'done' | 'max_steps' | '3_failures',</text>
      <text x="580" y="65" class="code-text">errors: string[],</text>
      <text x="580" y="80" class="code-text">pageTitle: string</text>

      <text x="980" y="35" class="box-title" fill="#059669">CROScores:</text>
      <text x="980" y="50" class="code-text">{ overall: 72,</text>
      <text x="980" y="65" class="code-text">  byCategory: {cta: 65, form: 80, ...},</text>
      <text x="980" y="80" class="code-text">  criticalCount: 2, highCount: 5 }</text>

      <text x="1370" y="65" class="code-text">}</text>
    </g>
  </g>

  <!-- ==================== LEGEND ==================== -->
  <g transform="translate(50, 1100)">
    <rect width="700" height="280" rx="8" fill="white" stroke="#e2e8f0" stroke-width="2"/>
    <text x="350" y="25" class="box-title" text-anchor="middle">LEGEND &amp; PIPELINE SUMMARY</text>

    <g transform="translate(20, 45)">
      <rect width="80" height="22" rx="4" fill="url(#stage1Grad)"/>
      <text x="100" y="16" class="box-text">CLI Input</text>

      <rect y="30" width="80" height="22" rx="4" fill="url(#stage2Grad)"/>
      <text x="100" y="46" class="box-text">Page Loading</text>

      <rect y="60" width="80" height="22" rx="4" fill="url(#stage3Grad)"/>
      <text x="100" y="76" class="box-text">DOM Extraction</text>

      <rect y="90" width="80" height="22" rx="4" fill="url(#stage4Grad)"/>
      <text x="100" y="106" class="box-text">Agent Loop</text>
    </g>

    <g transform="translate(200, 45)">
      <rect width="80" height="22" rx="4" fill="url(#stage5Grad)"/>
      <text x="100" y="16" class="box-text">Tool System</text>

      <rect y="30" width="80" height="22" rx="4" fill="url(#stage6Grad)"/>
      <text x="100" y="46" class="box-text">Heuristics</text>

      <rect y="60" width="80" height="22" rx="4" fill="url(#stage7Grad)"/>
      <text x="100" y="76" class="box-text">Post-Processing</text>

      <rect y="90" width="80" height="22" rx="4" fill="url(#stage8Grad)"/>
      <text x="100" y="106" class="box-text">Output</text>
    </g>

    <g transform="translate(400, 45)">
      <line x1="0" y1="10" x2="50" y2="10" stroke="#3b82f6" stroke-width="3" marker-end="url(#flowArrow)"/>
      <text x="70" y="15" class="box-text">Data flow</text>

      <line x1="0" y1="40" x2="50" y2="40" stroke="#8b5cf6" stroke-width="2" stroke-dasharray="6,4" marker-end="url(#loopArrow)"/>
      <text x="70" y="45" class="box-text">Loop iteration</text>

      <text x="0" y="75" class="box-title">Termination:</text>
      <text x="0" y="92" class="box-text">• done tool called</text>
      <text x="0" y="107" class="box-text">• max 10 steps</text>
      <text x="0" y="122" class="box-text">• 3 consecutive failures</text>
    </g>

    <!-- Flow summary -->
    <g transform="translate(20, 155)">
      <rect width="660" height="110" rx="6" fill="#f0fdf4" stroke="#86efac"/>
      <text x="330" y="20" class="box-title" text-anchor="middle" fill="#166534">PIPELINE FLOW SUMMARY</text>
      <text x="20" y="42" class="box-text">1. CLI parses URL and options → 2. Browser loads page, dismisses cookies → 3. DOMExtractor builds classified tree</text>
      <text x="20" y="60" class="box-text">4. CROAgent initializes with tools → 5. Agent loop: observe (re-extract) → reason (GPT-4o) → act (execute tool)</text>
      <text x="20" y="78" class="box-text">6. Heuristic engine runs 10 rules, detects business type → 7. Post-process: dedupe, prioritize, generate hypotheses</text>
      <text x="20" y="96" class="box-text">8. Output in console, markdown, or JSON format → Final CROAnalysisResult with scores, insights, and A/B test specs</text>
    </g>
  </g>

  <!-- Cookie CMPs Box -->
  <g transform="translate(770, 1100)">
    <rect width="680" height="280" rx="8" fill="white" stroke="#e2e8f0" stroke-width="2"/>
    <text x="340" y="25" class="box-title" text-anchor="middle">SUPPORTED FEATURES</text>

    <g transform="translate(20, 45)">
      <text x="0" y="15" class="box-title" fill="#0891b2">Cookie Consent Platforms:</text>
      <text x="0" y="35" class="code-text">OneTrust | Cookiebot | Usercentrics | TrustArc</text>
      <text x="0" y="50" class="code-text">Quantcast | Didomi | Osano | Heuristic fallback</text>

      <text x="0" y="80" class="box-title" fill="#f97316">10 Heuristic Rules:</text>
      <text x="0" y="100" class="code-text">H001-H002: CTA issues (vague text, below fold)</text>
      <text x="0" y="115" class="code-text">H003-H004: Form issues (overload, missing labels)</text>
      <text x="0" y="130" class="code-text">H005-H006: Trust issues (missing badges/signals)</text>
      <text x="0" y="145" class="code-text">H007-H008: Value prop issues (unclear, too long)</text>
      <text x="0" y="160" class="code-text">H009-H010: Navigation issues (breadcrumbs, search)</text>
    </g>

    <g transform="translate(360, 45)">
      <text x="0" y="15" class="box-title" fill="#8b5cf6">CRO Classifications:</text>
      <text x="0" y="35" class="code-text">cta - Call-to-action buttons/links</text>
      <text x="0" y="50" class="code-text">form - Form inputs, labels, submit</text>
      <text x="0" y="65" class="code-text">trust - Reviews, badges, guarantees</text>
      <text x="0" y="80" class="code-text">value_prop - Headlines, benefits, USPs</text>
      <text x="0" y="95" class="code-text">navigation - Menu, search, breadcrumbs</text>

      <text x="0" y="125" class="box-title" fill="#ec4899">Output Formats:</text>
      <text x="0" y="145" class="code-text">--output-format console (default)</text>
      <text x="0" y="160" class="code-text">--output-format markdown --output-file report.md</text>
      <text x="0" y="175" class="code-text">--output-format json --output-file analysis.json</text>
    </g>
  </g>
</svg>